<svg width="620" height="900" viewBox="0 0 620 900" fill="none" xmlns="http://www.w3.org/2000/svg">
<g clip-path="url(#clip0_9_13928)">
<rect width="620" height="900" fill="#0D2118"/>
<rect opacity="0.6" width="620" height="900" fill="#143530"/>
<circle opacity="0.07" cx="50" cy="42" r="2" fill="white"/>
<circle opacity="0.07" cx="114" cy="42" r="2" fill="white"/>
<circle opacity="0.07" cx="178" cy="42" r="2" fill="white"/>
<circle opacity="0.07" cx="242" cy="42" r="2" fill="white"/>
<circle opacity="0.07" cx="306" cy="42" r="2" fill="white"/>
<circle opacity="0.07" cx="370" cy="42" r="2" fill="white"/>
<circle opacity="0.07" cx="434" cy="42" r="2" fill="white"/>
<circle opacity="0.07" cx="498" cy="42" r="2" fill="white"/>
<circle opacity="0.07" cx="562" cy="42" r="2" fill="white"/>
<circle opacity="0.07" cx="50" cy="98" r="2" fill="white"/>
<circle opacity="0.07" cx="114" cy="98" r="2" fill="white"/>
<circle opacity="0.07" cx="178" cy="98" r="2" fill="white"/>
<circle opacity="0.07" cx="242" cy="98" r="2" fill="white"/>
<circle opacity="0.07" cx="306" cy="98" r="2" fill="white"/>
<circle opacity="0.07" cx="370" cy="98" r="2" fill="white"/>
<circle opacity="0.07" cx="434" cy="98" r="2" fill="white"/>
<circle opacity="0.07" cx="498" cy="98" r="2" fill="white"/>
<circle opacity="0.07" cx="562" cy="98" r="2" fill="white"/>
<circle opacity="0.07" cx="50" cy="154" r="2" fill="white"/>
<circle opacity="0.07" cx="114" cy="154" r="2" fill="white"/>
<circle opacity="0.07" cx="178" cy="154" r="2" fill="white"/>
<circle opacity="0.07" cx="242" cy="154" r="2" fill="white"/>
<circle opacity="0.07" cx="306" cy="154" r="2" fill="white"/>
<circle opacity="0.07" cx="370" cy="154" r="2" fill="white"/>
<circle opacity="0.07" cx="434" cy="154" r="2" fill="white"/>
<circle opacity="0.07" cx="498" cy="154" r="2" fill="white"/>
<circle opacity="0.07" cx="562" cy="154" r="2" fill="white"/>
<circle opacity="0.07" cx="50" cy="210" r="2" fill="white"/>
<circle opacity="0.07" cx="114" cy="210" r="2" fill="white"/>
<circle opacity="0.07" cx="178" cy="210" r="2" fill="white"/>
<circle opacity="0.07" cx="242" cy="210" r="2" fill="white"/>
<circle opacity="0.07" cx="306" cy="210" r="2" fill="white"/>
<circle opacity="0.07" cx="370" cy="210" r="2" fill="white"/>
<circle opacity="0.07" cx="434" cy="210" r="2" fill="white"/>
<circle opacity="0.07" cx="498" cy="210" r="2" fill="white"/>
<circle opacity="0.07" cx="562" cy="210" r="2" fill="white"/>
<circle opacity="0.07" cx="50" cy="266" r="2" fill="white"/>
<circle opacity="0.07" cx="114" cy="266" r="2" fill="white"/>
<circle opacity="0.07" cx="178" cy="266" r="2" fill="white"/>
<circle opacity="0.07" cx="242" cy="266" r="2" fill="white"/>
<circle opacity="0.07" cx="306" cy="266" r="2" fill="white"/>
<circle opacity="0.07" cx="370" cy="266" r="2" fill="white"/>
<circle opacity="0.07" cx="434" cy="266" r="2" fill="white"/>
<circle opacity="0.07" cx="498" cy="266" r="2" fill="white"/>
<circle opacity="0.07" cx="562" cy="266" r="2" fill="white"/>
<circle opacity="0.07" cx="50" cy="322" r="2" fill="white"/>
<circle opacity="0.07" cx="114" cy="322" r="2" fill="white"/>
<circle opacity="0.07" cx="178" cy="322" r="2" fill="white"/>
<circle opacity="0.07" cx="242" cy="322" r="2" fill="white"/>
<circle opacity="0.07" cx="306" cy="322" r="2" fill="white"/>
<circle opacity="0.07" cx="370" cy="322" r="2" fill="white"/>
<circle opacity="0.07" cx="434" cy="322" r="2" fill="white"/>
<circle opacity="0.07" cx="498" cy="322" r="2" fill="white"/>
<circle opacity="0.07" cx="562" cy="322" r="2" fill="white"/>
<circle opacity="0.07" cx="50" cy="378" r="2" fill="white"/>
<circle opacity="0.07" cx="114" cy="378" r="2" fill="white"/>
<circle opacity="0.07" cx="178" cy="378" r="2" fill="white"/>
<circle opacity="0.07" cx="242" cy="378" r="2" fill="white"/>
<circle opacity="0.07" cx="306" cy="378" r="2" fill="white"/>
<circle opacity="0.07" cx="370" cy="378" r="2" fill="white"/>
<circle opacity="0.07" cx="434" cy="378" r="2" fill="white"/>
<circle opacity="0.07" cx="498" cy="378" r="2" fill="white"/>
<circle opacity="0.07" cx="562" cy="378" r="2" fill="white"/>
<circle opacity="0.07" cx="50" cy="434" r="2" fill="white"/>
<circle opacity="0.07" cx="114" cy="434" r="2" fill="white"/>
<circle opacity="0.07" cx="178" cy="434" r="2" fill="white"/>
<circle opacity="0.07" cx="242" cy="434" r="2" fill="white"/>
<circle opacity="0.07" cx="306" cy="434" r="2" fill="white"/>
<circle opacity="0.07" cx="370" cy="434" r="2" fill="white"/>
<circle opacity="0.07" cx="434" cy="434" r="2" fill="white"/>
<circle opacity="0.07" cx="498" cy="434" r="2" fill="white"/>
<circle opacity="0.07" cx="562" cy="434" r="2" fill="white"/>
<circle opacity="0.07" cx="50" cy="490" r="2" fill="white"/>
<circle opacity="0.07" cx="114" cy="490" r="2" fill="white"/>
<circle opacity="0.07" cx="178" cy="490" r="2" fill="white"/>
<circle opacity="0.07" cx="242" cy="490" r="2" fill="white"/>
<circle opacity="0.07" cx="306" cy="490" r="2" fill="white"/>
<circle opacity="0.07" cx="370" cy="490" r="2" fill="white"/>
<circle opacity="0.07" cx="434" cy="490" r="2" fill="white"/>
<circle opacity="0.07" cx="498" cy="490" r="2" fill="white"/>
<circle opacity="0.07" cx="562" cy="490" r="2" fill="white"/>
<circle opacity="0.07" cx="50" cy="546" r="2" fill="white"/>
<circle opacity="0.07" cx="114" cy="546" r="2" fill="white"/>
<circle opacity="0.07" cx="178" cy="546" r="2" fill="white"/>
<circle opacity="0.07" cx="242" cy="546" r="2" fill="white"/>
<circle opacity="0.07" cx="306" cy="546" r="2" fill="white"/>
<circle opacity="0.07" cx="370" cy="546" r="2" fill="white"/>
<circle opacity="0.07" cx="434" cy="546" r="2" fill="white"/>
<circle opacity="0.07" cx="498" cy="546" r="2" fill="white"/>
<circle opacity="0.07" cx="562" cy="546" r="2" fill="white"/>
<circle opacity="0.07" cx="50" cy="602" r="2" fill="white"/>
<circle opacity="0.07" cx="114" cy="602" r="2" fill="white"/>
<circle opacity="0.07" cx="178" cy="602" r="2" fill="white"/>
<circle opacity="0.07" cx="242" cy="602" r="2" fill="white"/>
<circle opacity="0.07" cx="306" cy="602" r="2" fill="white"/>
<circle opacity="0.07" cx="370" cy="602" r="2" fill="white"/>
<circle opacity="0.07" cx="434" cy="602" r="2" fill="white"/>
<circle opacity="0.07" cx="498" cy="602" r="2" fill="white"/>
<circle opacity="0.07" cx="562" cy="602" r="2" fill="white"/>
<circle opacity="0.07" cx="50" cy="658" r="2" fill="white"/>
<circle opacity="0.07" cx="114" cy="658" r="2" fill="white"/>
<circle opacity="0.07" cx="178" cy="658" r="2" fill="white"/>
<circle opacity="0.07" cx="242" cy="658" r="2" fill="white"/>
<circle opacity="0.07" cx="306" cy="658" r="2" fill="white"/>
<circle opacity="0.07" cx="370" cy="658" r="2" fill="white"/>
<circle opacity="0.07" cx="434" cy="658" r="2" fill="white"/>
<circle opacity="0.07" cx="498" cy="658" r="2" fill="white"/>
<circle opacity="0.07" cx="562" cy="658" r="2" fill="white"/>
<circle opacity="0.07" cx="50" cy="714" r="2" fill="white"/>
<circle opacity="0.07" cx="114" cy="714" r="2" fill="white"/>
<circle opacity="0.07" cx="178" cy="714" r="2" fill="white"/>
<circle opacity="0.07" cx="242" cy="714" r="2" fill="white"/>
<circle opacity="0.07" cx="306" cy="714" r="2" fill="white"/>
<circle opacity="0.07" cx="370" cy="714" r="2" fill="white"/>
<circle opacity="0.07" cx="434" cy="714" r="2" fill="white"/>
<circle opacity="0.07" cx="498" cy="714" r="2" fill="white"/>
<circle opacity="0.07" cx="562" cy="714" r="2" fill="white"/>
<circle opacity="0.07" cx="50" cy="770" r="2" fill="white"/>
<circle opacity="0.07" cx="114" cy="770" r="2" fill="white"/>
<circle opacity="0.07" cx="178" cy="770" r="2" fill="white"/>
<circle opacity="0.07" cx="242" cy="770" r="2" fill="white"/>
<circle opacity="0.07" cx="306" cy="770" r="2" fill="white"/>
<circle opacity="0.07" cx="370" cy="770" r="2" fill="white"/>
<circle opacity="0.07" cx="434" cy="770" r="2" fill="white"/>
<circle opacity="0.07" cx="498" cy="770" r="2" fill="white"/>
<circle opacity="0.07" cx="562" cy="770" r="2" fill="white"/>
<circle opacity="0.07" cx="50" cy="826" r="2" fill="white"/>
<circle opacity="0.07" cx="114" cy="826" r="2" fill="white"/>
<circle opacity="0.07" cx="178" cy="826" r="2" fill="white"/>
<circle opacity="0.07" cx="242" cy="826" r="2" fill="white"/>
<circle opacity="0.07" cx="306" cy="826" r="2" fill="white"/>
<circle opacity="0.07" cx="370" cy="826" r="2" fill="white"/>
<circle opacity="0.07" cx="434" cy="826" r="2" fill="white"/>
<circle opacity="0.07" cx="498" cy="826" r="2" fill="white"/>
<circle opacity="0.07" cx="562" cy="826" r="2" fill="white"/>
<circle opacity="0.07" cx="50" cy="882" r="2" fill="white"/>
<circle opacity="0.07" cx="114" cy="882" r="2" fill="white"/>
<circle opacity="0.07" cx="178" cy="882" r="2" fill="white"/>
<circle opacity="0.07" cx="242" cy="882" r="2" fill="white"/>
<circle opacity="0.07" cx="306" cy="882" r="2" fill="white"/>
<circle opacity="0.07" cx="370" cy="882" r="2" fill="white"/>
<circle opacity="0.07" cx="434" cy="882" r="2" fill="white"/>
<circle opacity="0.07" cx="498" cy="882" r="2" fill="white"/>
<circle opacity="0.07" cx="562" cy="882" r="2" fill="white"/>
<circle opacity="0.18" cx="540" cy="40" r="160" fill="#276152"/>
<circle opacity="0.12" cx="80" cy="760" r="140" fill="#2D8A72"/>
<circle opacity="0.1" cx="260" cy="400" r="60" fill="#3B9A84"/>
</g>
<defs>
<clipPath id="clip0_9_13928">
<rect width="620" height="900" fill="white"/>
</clipPath>
</defs>
</svg>
