<svg width="852" height="952" viewBox="0 0 852 952" fill="none" xmlns="http://www.w3.org/2000/svg">
<g clip-path="url(#clip0_2_3148)">
<rect width="851.938" height="952" fill="#111827"/>
<g clip-path="url(#clip1_2_3148)">
<rect width="851.938" height="952" fill="url(#paint0_radial_2_3148)"/>
<g filter="url(#filter0_d_2_3148)">
<g clip-path="url(#clip2_2_3148)">
<path d="M73.9688 752C73.9688 745.373 79.3413 740 85.9688 740H125.969C132.596 740 137.969 745.373 137.969 752V920H73.9688V752Z" fill="url(#paint1_linear_2_3148)" shape-rendering="crispEdges"/>
<g opacity="0.4">
<rect width="64" height="180" transform="translate(73.9688 740)" fill="url(#paint2_linear_2_3148)"/>
<rect width="64" height="180" transform="translate(73.9688 740)" fill="url(#paint3_linear_2_3148)"/>
</g>
<g opacity="0.306667">
<rect width="64" height="180" transform="translate(73.9688 740)" fill="url(#paint4_linear_2_3148)"/>
</g>
<rect width="64" height="4" transform="translate(73.9688 740)" fill="url(#paint5_linear_2_3148)"/>
</g>
</g>
<g filter="url(#filter1_d_2_3148)">
<g clip-path="url(#clip3_2_3148)">
<path d="M153.969 692C153.969 685.373 159.341 680 165.969 680H205.969C212.596 680 217.969 685.373 217.969 692V920H153.969V692Z" fill="url(#paint6_linear_2_3148)" shape-rendering="crispEdges"/>
<g opacity="0.4">
<rect width="64" height="240" transform="translate(153.969 680)" fill="url(#paint7_linear_2_3148)"/>
<rect width="64" height="240" transform="translate(153.969 680)" fill="url(#paint8_linear_2_3148)"/>
</g>
<g opacity="0.324277">
<rect width="64" height="240" transform="translate(153.969 680)" fill="url(#paint9_linear_2_3148)"/>
</g>
<rect width="64" height="4" transform="translate(153.969 680)" fill="url(#paint10_linear_2_3148)"/>
</g>
</g>
<g filter="url(#filter2_d_2_3148)">
<g clip-path="url(#clip4_2_3148)">
<path d="M233.969 772C233.969 765.373 239.341 760 245.969 760H285.969C292.596 760 297.969 765.373 297.969 772V920H233.969V772Z" fill="url(#paint11_linear_2_3148)" shape-rendering="crispEdges"/>
<g opacity="0.4">
<rect width="64" height="160" transform="translate(233.969 760)" fill="url(#paint12_linear_2_3148)"/>
<rect width="64" height="160" transform="translate(233.969 760)" fill="url(#paint13_linear_2_3148)"/>
</g>
<g opacity="0.353515">
<rect width="64" height="160" transform="translate(233.969 760)" fill="url(#paint14_linear_2_3148)"/>
</g>
<rect width="64" height="4" transform="translate(233.969 760)" fill="url(#paint15_linear_2_3148)"/>
</g>
</g>
<g filter="url(#filter3_d_2_3148)">
<g clip-path="url(#clip5_2_3148)">
<path d="M313.969 652C313.969 645.373 319.341 640 325.969 640H365.969C372.596 640 377.969 645.373 377.969 652V920H313.969V652Z" fill="url(#paint16_linear_2_3148)" shape-rendering="crispEdges"/>
<g opacity="0.4">
<rect width="64" height="280" transform="translate(313.969 640)" fill="url(#paint17_linear_2_3148)"/>
<rect width="64" height="280" transform="translate(313.969 640)" fill="url(#paint18_linear_2_3148)"/>
</g>
<g opacity="0.314047">
<rect width="64" height="280" transform="translate(313.969 640)" fill="url(#paint19_linear_2_3148)"/>
</g>
<rect width="64" height="4" transform="translate(313.969 640)" fill="url(#paint20_linear_2_3148)"/>
</g>
</g>
<g filter="url(#filter4_d_2_3148)">
<g clip-path="url(#clip6_2_3148)">
<path d="M393.969 732C393.969 725.373 399.341 720 405.969 720H445.969C452.596 720 457.969 725.373 457.969 732V920H393.969V732Z" fill="url(#paint21_linear_2_3148)" shape-rendering="crispEdges"/>
<g opacity="0.4">
<rect width="64" height="200" transform="translate(393.969 720)" fill="url(#paint22_linear_2_3148)"/>
<rect width="64" height="200" transform="translate(393.969 720)" fill="url(#paint23_linear_2_3148)"/>
</g>
<g opacity="0.337421">
<rect width="64" height="200" transform="translate(393.969 720)" fill="url(#paint24_linear_2_3148)"/>
</g>
<rect width="64" height="4" transform="translate(393.969 720)" fill="url(#paint25_linear_2_3148)"/>
</g>
</g>
<g filter="url(#filter5_d_2_3148)">
<g clip-path="url(#clip7_2_3148)">
<path d="M473.969 712C473.969 705.373 479.341 700 485.969 700H525.969C532.596 700 537.969 705.373 537.969 712V920H473.969V712Z" fill="url(#paint26_linear_2_3148)" shape-rendering="crispEdges"/>
<g opacity="0.4">
<rect width="64" height="220" transform="translate(473.969 700)" fill="url(#paint27_linear_2_3148)"/>
<rect width="64" height="220" transform="translate(473.969 700)" fill="url(#paint28_linear_2_3148)"/>
</g>
<g opacity="0.372557">
<rect width="64" height="220" transform="translate(473.969 700)" fill="url(#paint29_linear_2_3148)"/>
</g>
<rect width="64" height="4" transform="translate(473.969 700)" fill="url(#paint30_linear_2_3148)"/>
</g>
</g>
<g filter="url(#filter6_d_2_3148)">
<g clip-path="url(#clip8_2_3148)">
<path d="M553.969 742C553.969 735.373 559.341 730 565.969 730H605.969C612.596 730 617.969 735.373 617.969 742V920H553.969V742Z" fill="url(#paint31_linear_2_3148)" shape-rendering="crispEdges"/>
<g opacity="0.4">
<rect width="64" height="190" transform="translate(553.969 730)" fill="url(#paint32_linear_2_3148)"/>
<rect width="64" height="190" transform="translate(553.969 730)" fill="url(#paint33_linear_2_3148)"/>
</g>
<g opacity="0.324277">
<rect width="64" height="190" transform="translate(553.969 730)" fill="url(#paint34_linear_2_3148)"/>
</g>
<rect width="64" height="4" transform="translate(553.969 730)" fill="url(#paint35_linear_2_3148)"/>
</g>
</g>
<g filter="url(#filter7_d_2_3148)">
<g clip-path="url(#clip9_2_3148)">
<path d="M633.969 672C633.969 665.373 639.341 660 645.969 660H685.969C692.596 660 697.969 665.373 697.969 672V920H633.969V672Z" fill="url(#paint36_linear_2_3148)" shape-rendering="crispEdges"/>
<g opacity="0.4">
<rect width="64" height="260" transform="translate(633.969 660)" fill="url(#paint37_linear_2_3148)"/>
<rect width="64" height="260" transform="translate(633.969 660)" fill="url(#paint38_linear_2_3148)"/>
</g>
<g opacity="0.353515">
<rect width="64" height="260" transform="translate(633.969 660)" fill="url(#paint39_linear_2_3148)"/>
</g>
<rect width="64" height="4" transform="translate(633.969 660)" fill="url(#paint40_linear_2_3148)"/>
</g>
</g>
<g filter="url(#filter8_d_2_3148)">
<g clip-path="url(#clip10_2_3148)">
<path d="M713.969 762C713.969 755.373 719.341 750 725.969 750H765.969C772.596 750 777.969 755.373 777.969 762V920H713.969V762Z" fill="url(#paint41_linear_2_3148)" shape-rendering="crispEdges"/>
<g opacity="0.4">
<rect width="64" height="170" transform="translate(713.969 750)" fill="url(#paint42_linear_2_3148)"/>
<rect width="64" height="170" transform="translate(713.969 750)" fill="url(#paint43_linear_2_3148)"/>
</g>
<g opacity="0.314047">
<rect width="64" height="170" transform="translate(713.969 750)" fill="url(#paint44_linear_2_3148)"/>
</g>
<rect width="64" height="4" transform="translate(713.969 750)" fill="url(#paint45_linear_2_3148)"/>
</g>
</g>
<g opacity="0.938473">
<path d="M426.347 951.744C426.347 950.639 427.242 949.744 428.347 949.744V949.744C429.451 949.744 430.347 950.639 430.347 951.744V951.744C430.347 952.848 429.451 953.744 428.347 953.744V953.744C427.242 953.744 426.347 952.848 426.347 951.744V951.744Z" fill="#276152"/>
</g>
<g opacity="0.265983">
<path d="M426.713 949.834C426.713 948.729 427.608 947.834 428.713 947.834V947.834C429.817 947.834 430.713 948.729 430.713 949.834V949.834C430.713 950.939 429.817 951.834 428.713 951.834V951.834C427.608 951.834 426.713 950.939 426.713 949.834V949.834Z" fill="#276152"/>
</g>
<g opacity="0.197467">
<path d="M425.798 953.522C425.798 952.417 426.693 951.522 427.798 951.522V951.522C428.902 951.522 429.798 952.417 429.798 953.522V953.522C429.798 954.627 428.902 955.522 427.798 955.522V955.522C426.693 955.522 425.798 954.627 425.798 953.522V953.522Z" fill="#276152"/>
</g>
<g opacity="0.0814182">
<path d="M425.747 949.391C425.747 948.286 426.643 947.391 427.747 947.391V947.391C428.852 947.391 429.747 948.286 429.747 949.391V949.391C429.747 950.495 428.852 951.391 427.747 951.391V951.391C426.643 951.391 425.747 950.495 425.747 949.391V949.391Z" fill="#276152"/>
</g>
<g opacity="0.674859">
<path d="M426.832 950.815C426.832 949.711 427.727 948.815 428.832 948.815V948.815C429.937 948.815 430.832 949.711 430.832 950.815V950.815C430.832 951.92 429.937 952.815 428.832 952.815V952.815C427.727 952.815 426.832 951.92 426.832 950.815V950.815Z" fill="#276152"/>
</g>
<g opacity="0.755839">
<path d="M426.067 952.182C426.067 951.077 426.963 950.182 428.067 950.182V950.182C429.172 950.182 430.067 951.077 430.067 952.182V952.182C430.067 953.286 429.172 954.182 428.067 954.182V954.182C426.963 954.182 426.067 953.286 426.067 952.182V952.182Z" fill="#276152"/>
</g>
<g opacity="0.226572">
<path d="M427.59 949.74C427.59 948.635 428.485 947.74 429.59 947.74V947.74C430.694 947.74 431.59 948.635 431.59 949.74V949.74C431.59 950.844 430.694 951.74 429.59 951.74V951.74C428.485 951.74 427.59 950.844 427.59 949.74V949.74Z" fill="#276152"/>
</g>
<g opacity="0.928427">
<path d="M427.485 951.424C427.485 950.32 428.381 949.424 429.485 949.424V949.424C430.59 949.424 431.485 950.32 431.485 951.424V951.424C431.485 952.529 430.59 953.424 429.485 953.424V953.424C428.381 953.424 427.485 952.529 427.485 951.424V951.424Z" fill="#276152"/>
</g>
<g opacity="0.0634808">
<path d="M425.496 953.844C425.496 952.739 426.392 951.844 427.496 951.844V951.844C428.601 951.844 429.496 952.739 429.496 953.844V953.844C429.496 954.948 428.601 955.844 427.496 955.844V955.844C426.392 955.844 425.496 954.948 425.496 953.844V953.844Z" fill="#276152"/>
</g>
<g opacity="0.790877">
<path d="M427.242 952.098C427.242 950.993 428.138 950.098 429.242 950.098V950.098C430.347 950.098 431.242 950.993 431.242 952.098V952.098C431.242 953.202 430.347 954.098 429.242 954.098V954.098C428.138 954.098 427.242 953.202 427.242 952.098V952.098Z" fill="#276152"/>
</g>
<g opacity="0.210777">
<path d="M425.152 949.701C425.152 948.596 426.048 947.701 427.152 947.701V947.701C428.257 947.701 429.152 948.596 429.152 949.701V949.701C429.152 950.805 428.257 951.701 427.152 951.701V951.701C426.048 951.701 425.152 950.805 425.152 949.701V949.701Z" fill="#276152"/>
</g>
<g opacity="0.167826">
<path d="M425.002 949.598C425.002 948.494 425.897 947.598 427.002 947.598V947.598C428.107 947.598 429.002 948.494 429.002 949.598V949.598C429.002 950.703 428.107 951.598 427.002 951.598V951.598C425.897 951.598 425.002 950.703 425.002 949.598V949.598Z" fill="#276152"/>
</g>
<g opacity="0.79902">
<path d="M424.027 951.114C424.027 950.009 424.923 949.114 426.027 949.114V949.114C427.132 949.114 428.027 950.009 428.027 951.114V951.114C428.027 952.218 427.132 953.114 426.027 953.114V953.114C424.923 953.114 424.027 952.218 424.027 951.114V951.114Z" fill="#276152"/>
</g>
<g opacity="0.0760662">
<path d="M426.521 949.378C426.521 948.273 427.417 947.378 428.521 947.378V947.378C429.626 947.378 430.521 948.273 430.521 949.378V949.378C430.521 950.482 429.626 951.378 428.521 951.378V951.378C427.417 951.378 426.521 950.482 426.521 949.378V949.378Z" fill="#276152"/>
</g>
<g opacity="0.347122">
<path d="M425.838 950.029C425.838 948.924 426.733 948.029 427.838 948.029V948.029C428.942 948.029 429.838 948.924 429.838 950.029V950.029C429.838 951.134 428.942 952.029 427.838 952.029V952.029C426.733 952.029 425.838 951.134 425.838 950.029V950.029Z" fill="#276152"/>
</g>
</g>
<rect width="851.938" height="952" fill="url(#paint46_linear_2_3148)"/>
<rect width="851.938" height="952" fill="url(#paint47_linear_2_3148)"/>
<g opacity="0.1">
<rect width="851.938" height="952" fill="url(#paint48_linear_2_3148)"/>
<rect width="851.938" height="952" fill="url(#paint49_linear_2_3148)"/>
</g>
<path d="M114.42 854L113.244 850.472H105.432L104.256 854H100.084L106.944 834.4H111.732L118.62 854H114.42ZM106.664 846.86H112.04L109.352 838.852L106.664 846.86ZM140.112 844.2C140.112 846.748 139.216 849.044 137.704 850.808L139.72 852.908L136.976 855.344L134.848 853.132C133.392 853.944 131.712 854.392 129.92 854.392C124.292 854.392 119.756 849.912 119.756 844.2C119.756 838.46 124.292 834.008 129.92 834.008C135.548 834.008 140.112 838.46 140.112 844.2ZM129.92 850.612C130.676 850.612 131.432 850.472 132.104 850.248L128.884 846.888L131.628 844.452L135.072 848.036C135.8 847 136.248 845.684 136.248 844.2C136.248 840.42 133.448 837.76 129.92 837.76C126.392 837.76 123.592 840.42 123.592 844.2C123.592 847.952 126.392 850.612 129.92 850.612ZM155.509 850.304H163.769V854H151.645V834.4H163.629V838.096H155.509V842.268H162.929V845.908H155.509V850.304ZM170.496 843.976C170.496 846.048 177.72 844.76 177.72 849.912C177.72 852.936 175.088 854.392 172.092 854.392C169.292 854.392 167.22 853.216 166.212 851.06L169.348 849.296C169.74 850.444 170.692 851.116 172.092 851.116C173.24 851.116 174.024 850.724 174.024 849.912C174.024 847.868 166.8 848.988 166.8 844.06C166.8 841.204 169.236 839.608 172.12 839.608C174.388 839.608 176.348 840.644 177.44 842.576L174.36 844.256C173.94 843.36 173.156 842.828 172.12 842.828C171.224 842.828 170.496 843.22 170.496 843.976ZM188.481 843.472H185.317V849.296C185.317 850.808 186.409 850.836 188.481 850.724V854C183.413 854.56 181.705 853.076 181.705 849.296V843.472H179.269V840H181.705V837.172L185.317 836.08V840H188.481V843.472ZM202.07 840H205.682V854H202.07V852.348C201.062 853.608 199.55 854.392 197.506 854.392C193.782 854.392 190.702 851.172 190.702 847C190.702 842.828 193.782 839.608 197.506 839.608C199.55 839.608 201.062 840.392 202.07 841.652V840ZM198.178 850.948C200.418 850.948 202.07 849.352 202.07 847C202.07 844.648 200.418 843.052 198.178 843.052C195.966 843.052 194.314 844.648 194.314 847C194.314 849.352 195.966 850.948 198.178 850.948ZM217.806 843.472H214.642V849.296C214.642 850.808 215.734 850.836 217.806 850.724V854C212.738 854.56 211.03 853.076 211.03 849.296V843.472H208.594V840H211.03V837.172L214.642 836.08V840H217.806V843.472ZM223.807 848.484C224.311 850.332 225.851 851.116 227.755 851.116C229.155 851.116 230.275 850.528 230.891 849.716L233.803 851.396C232.487 853.3 230.387 854.392 227.699 854.392C222.995 854.392 220.027 851.172 220.027 847C220.027 842.828 223.023 839.608 227.419 839.608C231.563 839.608 234.503 842.884 234.503 847C234.503 847.532 234.447 848.008 234.363 848.484H223.807ZM223.751 845.684H230.891C230.443 843.668 228.931 842.856 227.419 842.856C225.487 842.856 224.171 843.892 223.751 845.684Z" fill="white"/>
<path d="M74.7504 860.65C72.4004 861.725 69.8004 862.35 67.0504 862.35C63.1004 862.35 59.4504 861.1 56.4754 859C54.5754 857.65 52.9254 855.95 51.6504 854L55.7254 846.925C56.3754 849.45 57.8254 851.625 59.8254 853.2C61.8254 854.775 64.3254 855.7 67.0504 855.7C69.7754 855.7 70.0504 855.4 71.3754 854.875L74.7254 860.7L74.7504 860.65Z" fill="#D7C2A3"/>
<path d="M85.3996 843.975C85.3996 846.225 84.9996 848.4 84.2496 850.4L77.3246 838.4L77.2746 838.325C77.1996 838.175 77.1246 838.05 77.0496 837.925C75.7496 835.75 73.7746 834.075 71.4246 833.15C71.0246 833 70.6246 832.85 70.2246 832.75C69.2246 832.475 68.1746 832.325 67.0996 832.325C66.0246 832.325 64.9496 832.475 63.9746 832.75C63.5746 832.875 63.1746 833 62.7746 833.15C61.7246 833.575 60.7496 834.125 59.8746 834.825C58.7746 835.675 57.8496 836.75 57.1246 837.95L56.9746 838.225L49.8746 850.4C49.1246 848.4 48.7246 846.225 48.7246 843.975C48.7246 837.775 51.7996 832.3 56.4996 828.975C57.3996 828.325 58.3746 827.775 59.3746 827.3C60.8246 826.625 62.3996 826.125 64.0496 825.85C64.7246 825.725 65.4246 825.65 66.1246 825.625C66.4496 825.625 66.7496 825.625 67.0746 825.625C67.3996 825.625 67.6996 825.625 68.0246 825.625C68.7246 825.65 69.4246 825.75 70.0996 825.85C71.7496 826.125 73.2996 826.6 74.7746 827.3C81.0746 830.2 85.4246 836.575 85.4246 843.95L85.3996 843.975Z" fill="#D7C2A3"/>
<path d="M87.2752 862.325H79.5752L77.6252 858.975L74.2752 853.15L72.5752 850.225L70.8502 847.225L68.5252 843.2L68.4502 843.075V843.025C68.1252 842.575 67.6002 842.3 67.0252 842.3C66.4502 842.3 65.8502 842.65 65.5502 843.175L65.1002 843.975L63.2252 847.225L61.5002 850.225L59.8002 853.15C57.8252 851.6 56.3502 849.4 55.7002 846.875L59.6752 840L59.8752 839.65C60.3002 838.925 60.8502 838.275 61.4752 837.725C62.3002 836.975 63.2752 836.4 64.3752 836.05C65.2002 835.775 66.1002 835.625 67.0252 835.625C67.9502 835.625 68.8252 835.775 69.6752 836.05C71.5502 836.675 73.1502 837.95 74.1502 839.625L74.3502 840L78.3252 846.9L82.4002 853.975L87.2252 862.35L87.2752 862.325Z" fill="#276152"/>
</g>
<defs>
<filter id="filter0_d_2_3148" x="70.9688" y="738" width="70" height="186" filterUnits="userSpaceOnUse" color-interpolation-filters="sRGB">
<feFlood flood-opacity="0" result="BackgroundImageFix"/>
<feColorMatrix in="SourceAlpha" type="matrix" values="0 0 0 0 0 0 0 0 0 0 0 0 0 0 0 0 0 0 127 0" result="hardAlpha"/>
<feOffset dy="1"/>
<feGaussianBlur stdDeviation="1.5"/>
<feComposite in2="hardAlpha" operator="out"/>
<feColorMatrix type="matrix" values="0 0 0 0 0 0 0 0 0 0 0 0 0 0 0 0 0 0 0.08 0"/>
<feBlend mode="normal" in2="BackgroundImageFix" result="effect1_dropShadow_2_3148"/>
<feBlend mode="normal" in="SourceGraphic" in2="effect1_dropShadow_2_3148" result="shape"/>
</filter>
<filter id="filter1_d_2_3148" x="150.969" y="678" width="70" height="246" filterUnits="userSpaceOnUse" color-interpolation-filters="sRGB">
<feFlood flood-opacity="0" result="BackgroundImageFix"/>
<feColorMatrix in="SourceAlpha" type="matrix" values="0 0 0 0 0 0 0 0 0 0 0 0 0 0 0 0 0 0 127 0" result="hardAlpha"/>
<feOffset dy="1"/>
<feGaussianBlur stdDeviation="1.5"/>
<feComposite in2="hardAlpha" operator="out"/>
<feColorMatrix type="matrix" values="0 0 0 0 0 0 0 0 0 0 0 0 0 0 0 0 0 0 0.08 0"/>
<feBlend mode="normal" in2="BackgroundImageFix" result="effect1_dropShadow_2_3148"/>
<feBlend mode="normal" in="SourceGraphic" in2="effect1_dropShadow_2_3148" result="shape"/>
</filter>
<filter id="filter2_d_2_3148" x="230.969" y="758" width="70" height="166" filterUnits="userSpaceOnUse" color-interpolation-filters="sRGB">
<feFlood flood-opacity="0" result="BackgroundImageFix"/>
<feColorMatrix in="SourceAlpha" type="matrix" values="0 0 0 0 0 0 0 0 0 0 0 0 0 0 0 0 0 0 127 0" result="hardAlpha"/>
<feOffset dy="1"/>
<feGaussianBlur stdDeviation="1.5"/>
<feComposite in2="hardAlpha" operator="out"/>
<feColorMatrix type="matrix" values="0 0 0 0 0 0 0 0 0 0 0 0 0 0 0 0 0 0 0.08 0"/>
<feBlend mode="normal" in2="BackgroundImageFix" result="effect1_dropShadow_2_3148"/>
<feBlend mode="normal" in="SourceGraphic" in2="effect1_dropShadow_2_3148" result="shape"/>
</filter>
<filter id="filter3_d_2_3148" x="310.969" y="638" width="70" height="286" filterUnits="userSpaceOnUse" color-interpolation-filters="sRGB">
<feFlood flood-opacity="0" result="BackgroundImageFix"/>
<feColorMatrix in="SourceAlpha" type="matrix" values="0 0 0 0 0 0 0 0 0 0 0 0 0 0 0 0 0 0 127 0" result="hardAlpha"/>
<feOffset dy="1"/>
<feGaussianBlur stdDeviation="1.5"/>
<feComposite in2="hardAlpha" operator="out"/>
<feColorMatrix type="matrix" values="0 0 0 0 0 0 0 0 0 0 0 0 0 0 0 0 0 0 0.08 0"/>
<feBlend mode="normal" in2="BackgroundImageFix" result="effect1_dropShadow_2_3148"/>
<feBlend mode="normal" in="SourceGraphic" in2="effect1_dropShadow_2_3148" result="shape"/>
</filter>
<filter id="filter4_d_2_3148" x="390.969" y="718" width="70" height="206" filterUnits="userSpaceOnUse" color-interpolation-filters="sRGB">
<feFlood flood-opacity="0" result="BackgroundImageFix"/>
<feColorMatrix in="SourceAlpha" type="matrix" values="0 0 0 0 0 0 0 0 0 0 0 0 0 0 0 0 0 0 127 0" result="hardAlpha"/>
<feOffset dy="1"/>
<feGaussianBlur stdDeviation="1.5"/>
<feComposite in2="hardAlpha" operator="out"/>
<feColorMatrix type="matrix" values="0 0 0 0 0 0 0 0 0 0 0 0 0 0 0 0 0 0 0.08 0"/>
<feBlend mode="normal" in2="BackgroundImageFix" result="effect1_dropShadow_2_3148"/>
<feBlend mode="normal" in="SourceGraphic" in2="effect1_dropShadow_2_3148" result="shape"/>
</filter>
<filter id="filter5_d_2_3148" x="470.969" y="698" width="70" height="226" filterUnits="userSpaceOnUse" color-interpolation-filters="sRGB">
<feFlood flood-opacity="0" result="BackgroundImageFix"/>
<feColorMatrix in="SourceAlpha" type="matrix" values="0 0 0 0 0 0 0 0 0 0 0 0 0 0 0 0 0 0 127 0" result="hardAlpha"/>
<feOffset dy="1"/>
<feGaussianBlur stdDeviation="1.5"/>
<feComposite in2="hardAlpha" operator="out"/>
<feColorMatrix type="matrix" values="0 0 0 0 0 0 0 0 0 0 0 0 0 0 0 0 0 0 0.08 0"/>
<feBlend mode="normal" in2="BackgroundImageFix" result="effect1_dropShadow_2_3148"/>
<feBlend mode="normal" in="SourceGraphic" in2="effect1_dropShadow_2_3148" result="shape"/>
</filter>
<filter id="filter6_d_2_3148" x="550.969" y="728" width="70" height="196" filterUnits="userSpaceOnUse" color-interpolation-filters="sRGB">
<feFlood flood-opacity="0" result="BackgroundImageFix"/>
<feColorMatrix in="SourceAlpha" type="matrix" values="0 0 0 0 0 0 0 0 0 0 0 0 0 0 0 0 0 0 127 0" result="hardAlpha"/>
<feOffset dy="1"/>
<feGaussianBlur stdDeviation="1.5"/>
<feComposite in2="hardAlpha" operator="out"/>
<feColorMatrix type="matrix" values="0 0 0 0 0 0 0 0 0 0 0 0 0 0 0 0 0 0 0.08 0"/>
<feBlend mode="normal" in2="BackgroundImageFix" result="effect1_dropShadow_2_3148"/>
<feBlend mode="normal" in="SourceGraphic" in2="effect1_dropShadow_2_3148" result="shape"/>
</filter>
<filter id="filter7_d_2_3148" x="630.969" y="658" width="70" height="266" filterUnits="userSpaceOnUse" color-interpolation-filters="sRGB">
<feFlood flood-opacity="0" result="BackgroundImageFix"/>
<feColorMatrix in="SourceAlpha" type="matrix" values="0 0 0 0 0 0 0 0 0 0 0 0 0 0 0 0 0 0 127 0" result="hardAlpha"/>
<feOffset dy="1"/>
<feGaussianBlur stdDeviation="1.5"/>
<feComposite in2="hardAlpha" operator="out"/>
<feColorMatrix type="matrix" values="0 0 0 0 0 0 0 0 0 0 0 0 0 0 0 0 0 0 0.08 0"/>
<feBlend mode="normal" in2="BackgroundImageFix" result="effect1_dropShadow_2_3148"/>
<feBlend mode="normal" in="SourceGraphic" in2="effect1_dropShadow_2_3148" result="shape"/>
</filter>
<filter id="filter8_d_2_3148" x="710.969" y="748" width="70" height="176" filterUnits="userSpaceOnUse" color-interpolation-filters="sRGB">
<feFlood flood-opacity="0" result="BackgroundImageFix"/>
<feColorMatrix in="SourceAlpha" type="matrix" values="0 0 0 0 0 0 0 0 0 0 0 0 0 0 0 0 0 0 127 0" result="hardAlpha"/>
<feOffset dy="1"/>
<feGaussianBlur stdDeviation="1.5"/>
<feComposite in2="hardAlpha" operator="out"/>
<feColorMatrix type="matrix" values="0 0 0 0 0 0 0 0 0 0 0 0 0 0 0 0 0 0 0.08 0"/>
<feBlend mode="normal" in2="BackgroundImageFix" result="effect1_dropShadow_2_3148"/>
<feBlend mode="normal" in="SourceGraphic" in2="effect1_dropShadow_2_3148" result="shape"/>
</filter>
<radialGradient id="paint0_radial_2_3148" cx="0" cy="0" r="1" gradientUnits="userSpaceOnUse" gradientTransform="translate(291.166 476) rotate(-90) scale(786.924 704.212)">
<stop stop-color="#265F50" stop-opacity="0.25"/>
<stop offset="0.5" stop-color="#111827" stop-opacity="0"/>
</radialGradient>
<linearGradient id="paint1_linear_2_3148" x1="105.969" y1="920" x2="105.969" y2="740" gradientUnits="userSpaceOnUse">
<stop stop-color="#276152" stop-opacity="0.5"/>
<stop offset="1" stop-color="#1E4D40" stop-opacity="0.25"/>
</linearGradient>
<linearGradient id="paint2_linear_2_3148" x1="0" y1="90" x2="64" y2="90" gradientUnits="userSpaceOnUse">
<stop offset="0.015625" stop-color="white" stop-opacity="0.1"/>
<stop offset="0.015625" stop-opacity="0"/>
</linearGradient>
<linearGradient id="paint3_linear_2_3148" x1="32" y1="0" x2="32" y2="180" gradientUnits="userSpaceOnUse">
<stop offset="0.00555556" stop-color="white" stop-opacity="0.1"/>
<stop offset="0.00555556" stop-opacity="0"/>
</linearGradient>
<linearGradient id="paint4_linear_2_3148" x1="32" y1="180" x2="32" y2="0" gradientUnits="userSpaceOnUse">
<stop stop-color="#276152" stop-opacity="0.3"/>
<stop offset="1" stop-opacity="0"/>
</linearGradient>
<linearGradient id="paint5_linear_2_3148" x1="0" y1="2" x2="64" y2="2" gradientUnits="userSpaceOnUse">
<stop stop-opacity="0"/>
<stop offset="0.0714286" stop-color="#070808" stop-opacity="0.142857"/>
<stop offset="0.142857" stop-color="#222625" stop-opacity="0.285714"/>
<stop offset="0.214286" stop-color="#424947" stop-opacity="0.428571"/>
<stop offset="0.285714" stop-color="#656F6C" stop-opacity="0.571429"/>
<stop offset="0.357143" stop-color="#8A9794" stop-opacity="0.714286"/>
<stop offset="0.428571" stop-color="#B1C1BD" stop-opacity="0.857143"/>
<stop offset="0.5" stop-color="#D9EDE8"/>
<stop offset="0.571429" stop-color="#B1C1BD" stop-opacity="0.857143"/>
<stop offset="0.642857" stop-color="#8A9794" stop-opacity="0.714286"/>
<stop offset="0.714286" stop-color="#656F6C" stop-opacity="0.571429"/>
<stop offset="0.785714" stop-color="#424947" stop-opacity="0.428571"/>
<stop offset="0.857143" stop-color="#222625" stop-opacity="0.285714"/>
<stop offset="0.928571" stop-color="#070808" stop-opacity="0.142857"/>
<stop offset="1" stop-opacity="0"/>
</linearGradient>
<linearGradient id="paint6_linear_2_3148" x1="185.969" y1="920" x2="185.969" y2="680" gradientUnits="userSpaceOnUse">
<stop stop-color="#276152" stop-opacity="0.5"/>
<stop offset="1" stop-color="#1E4D40" stop-opacity="0.25"/>
</linearGradient>
<linearGradient id="paint7_linear_2_3148" x1="0" y1="120" x2="64" y2="120" gradientUnits="userSpaceOnUse">
<stop offset="0.015625" stop-color="white" stop-opacity="0.1"/>
<stop offset="0.015625" stop-opacity="0"/>
</linearGradient>
<linearGradient id="paint8_linear_2_3148" x1="32" y1="0" x2="32" y2="240" gradientUnits="userSpaceOnUse">
<stop offset="0.00416667" stop-color="white" stop-opacity="0.1"/>
<stop offset="0.00416667" stop-opacity="0"/>
</linearGradient>
<linearGradient id="paint9_linear_2_3148" x1="32" y1="240" x2="32" y2="0" gradientUnits="userSpaceOnUse">
<stop stop-color="#276152" stop-opacity="0.3"/>
<stop offset="1" stop-opacity="0"/>
</linearGradient>
<linearGradient id="paint10_linear_2_3148" x1="0" y1="2" x2="64" y2="2" gradientUnits="userSpaceOnUse">
<stop stop-opacity="0"/>
<stop offset="0.0714286" stop-color="#070808" stop-opacity="0.142857"/>
<stop offset="0.142857" stop-color="#222625" stop-opacity="0.285714"/>
<stop offset="0.214286" stop-color="#424947" stop-opacity="0.428571"/>
<stop offset="0.285714" stop-color="#656F6C" stop-opacity="0.571429"/>
<stop offset="0.357143" stop-color="#8A9794" stop-opacity="0.714286"/>
<stop offset="0.428571" stop-color="#B1C1BD" stop-opacity="0.857143"/>
<stop offset="0.5" stop-color="#D9EDE8"/>
<stop offset="0.571429" stop-color="#B1C1BD" stop-opacity="0.857143"/>
<stop offset="0.642857" stop-color="#8A9794" stop-opacity="0.714286"/>
<stop offset="0.714286" stop-color="#656F6C" stop-opacity="0.571429"/>
<stop offset="0.785714" stop-color="#424947" stop-opacity="0.428571"/>
<stop offset="0.857143" stop-color="#222625" stop-opacity="0.285714"/>
<stop offset="0.928571" stop-color="#070808" stop-opacity="0.142857"/>
<stop offset="1" stop-opacity="0"/>
</linearGradient>
<linearGradient id="paint11_linear_2_3148" x1="265.969" y1="920" x2="265.969" y2="760" gradientUnits="userSpaceOnUse">
<stop stop-color="#276152" stop-opacity="0.5"/>
<stop offset="1" stop-color="#1E4D40" stop-opacity="0.25"/>
</linearGradient>
<linearGradient id="paint12_linear_2_3148" x1="0" y1="80" x2="64" y2="80" gradientUnits="userSpaceOnUse">
<stop offset="0.015625" stop-color="white" stop-opacity="0.1"/>
<stop offset="0.015625" stop-opacity="0"/>
</linearGradient>
<linearGradient id="paint13_linear_2_3148" x1="32" y1="0" x2="32" y2="160" gradientUnits="userSpaceOnUse">
<stop offset="0.00625" stop-color="white" stop-opacity="0.1"/>
<stop offset="0.00625" stop-opacity="0"/>
</linearGradient>
<linearGradient id="paint14_linear_2_3148" x1="32" y1="160" x2="32" y2="0" gradientUnits="userSpaceOnUse">
<stop stop-color="#276152" stop-opacity="0.3"/>
<stop offset="1" stop-opacity="0"/>
</linearGradient>
<linearGradient id="paint15_linear_2_3148" x1="0" y1="2" x2="64" y2="2" gradientUnits="userSpaceOnUse">
<stop stop-opacity="0"/>
<stop offset="0.0714286" stop-color="#070808" stop-opacity="0.142857"/>
<stop offset="0.142857" stop-color="#222625" stop-opacity="0.285714"/>
<stop offset="0.214286" stop-color="#424947" stop-opacity="0.428571"/>
<stop offset="0.285714" stop-color="#656F6C" stop-opacity="0.571429"/>
<stop offset="0.357143" stop-color="#8A9794" stop-opacity="0.714286"/>
<stop offset="0.428571" stop-color="#B1C1BD" stop-opacity="0.857143"/>
<stop offset="0.5" stop-color="#D9EDE8"/>
<stop offset="0.571429" stop-color="#B1C1BD" stop-opacity="0.857143"/>
<stop offset="0.642857" stop-color="#8A9794" stop-opacity="0.714286"/>
<stop offset="0.714286" stop-color="#656F6C" stop-opacity="0.571429"/>
<stop offset="0.785714" stop-color="#424947" stop-opacity="0.428571"/>
<stop offset="0.857143" stop-color="#222625" stop-opacity="0.285714"/>
<stop offset="0.928571" stop-color="#070808" stop-opacity="0.142857"/>
<stop offset="1" stop-opacity="0"/>
</linearGradient>
<linearGradient id="paint16_linear_2_3148" x1="345.969" y1="920" x2="345.969" y2="640" gradientUnits="userSpaceOnUse">
<stop stop-color="#276152" stop-opacity="0.5"/>
<stop offset="1" stop-color="#1E4D40" stop-opacity="0.25"/>
</linearGradient>
<linearGradient id="paint17_linear_2_3148" x1="0" y1="140" x2="64" y2="140" gradientUnits="userSpaceOnUse">
<stop offset="0.015625" stop-color="white" stop-opacity="0.1"/>
<stop offset="0.015625" stop-opacity="0"/>
</linearGradient>
<linearGradient id="paint18_linear_2_3148" x1="32" y1="0" x2="32" y2="280" gradientUnits="userSpaceOnUse">
<stop offset="0.00357143" stop-color="white" stop-opacity="0.1"/>
<stop offset="0.00357143" stop-opacity="0"/>
</linearGradient>
<linearGradient id="paint19_linear_2_3148" x1="32" y1="280" x2="32" y2="0" gradientUnits="userSpaceOnUse">
<stop stop-color="#276152" stop-opacity="0.3"/>
<stop offset="1" stop-opacity="0"/>
</linearGradient>
<linearGradient id="paint20_linear_2_3148" x1="0" y1="2" x2="64" y2="2" gradientUnits="userSpaceOnUse">
<stop stop-opacity="0"/>
<stop offset="0.0714286" stop-color="#070808" stop-opacity="0.142857"/>
<stop offset="0.142857" stop-color="#222625" stop-opacity="0.285714"/>
<stop offset="0.214286" stop-color="#424947" stop-opacity="0.428571"/>
<stop offset="0.285714" stop-color="#656F6C" stop-opacity="0.571429"/>
<stop offset="0.357143" stop-color="#8A9794" stop-opacity="0.714286"/>
<stop offset="0.428571" stop-color="#B1C1BD" stop-opacity="0.857143"/>
<stop offset="0.5" stop-color="#D9EDE8"/>
<stop offset="0.571429" stop-color="#B1C1BD" stop-opacity="0.857143"/>
<stop offset="0.642857" stop-color="#8A9794" stop-opacity="0.714286"/>
<stop offset="0.714286" stop-color="#656F6C" stop-opacity="0.571429"/>
<stop offset="0.785714" stop-color="#424947" stop-opacity="0.428571"/>
<stop offset="0.857143" stop-color="#222625" stop-opacity="0.285714"/>
<stop offset="0.928571" stop-color="#070808" stop-opacity="0.142857"/>
<stop offset="1" stop-opacity="0"/>
</linearGradient>
<linearGradient id="paint21_linear_2_3148" x1="425.969" y1="920" x2="425.969" y2="720" gradientUnits="userSpaceOnUse">
<stop stop-color="#276152" stop-opacity="0.5"/>
<stop offset="1" stop-color="#1E4D40" stop-opacity="0.25"/>
</linearGradient>
<linearGradient id="paint22_linear_2_3148" x1="0" y1="100" x2="64" y2="100" gradientUnits="userSpaceOnUse">
<stop offset="0.015625" stop-color="white" stop-opacity="0.1"/>
<stop offset="0.015625" stop-opacity="0"/>
</linearGradient>
<linearGradient id="paint23_linear_2_3148" x1="32" y1="0" x2="32" y2="200" gradientUnits="userSpaceOnUse">
<stop offset="0.005" stop-color="white" stop-opacity="0.1"/>
<stop offset="0.005" stop-opacity="0"/>
</linearGradient>
<linearGradient id="paint24_linear_2_3148" x1="32" y1="200" x2="32" y2="0" gradientUnits="userSpaceOnUse">
<stop stop-color="#276152" stop-opacity="0.3"/>
<stop offset="1" stop-opacity="0"/>
</linearGradient>
<linearGradient id="paint25_linear_2_3148" x1="0" y1="2" x2="64" y2="2" gradientUnits="userSpaceOnUse">
<stop stop-opacity="0"/>
<stop offset="0.0714286" stop-color="#070808" stop-opacity="0.142857"/>
<stop offset="0.142857" stop-color="#222625" stop-opacity="0.285714"/>
<stop offset="0.214286" stop-color="#424947" stop-opacity="0.428571"/>
<stop offset="0.285714" stop-color="#656F6C" stop-opacity="0.571429"/>
<stop offset="0.357143" stop-color="#8A9794" stop-opacity="0.714286"/>
<stop offset="0.428571" stop-color="#B1C1BD" stop-opacity="0.857143"/>
<stop offset="0.5" stop-color="#D9EDE8"/>
<stop offset="0.571429" stop-color="#B1C1BD" stop-opacity="0.857143"/>
<stop offset="0.642857" stop-color="#8A9794" stop-opacity="0.714286"/>
<stop offset="0.714286" stop-color="#656F6C" stop-opacity="0.571429"/>
<stop offset="0.785714" stop-color="#424947" stop-opacity="0.428571"/>
<stop offset="0.857143" stop-color="#222625" stop-opacity="0.285714"/>
<stop offset="0.928571" stop-color="#070808" stop-opacity="0.142857"/>
<stop offset="1" stop-opacity="0"/>
</linearGradient>
<linearGradient id="paint26_linear_2_3148" x1="505.969" y1="920" x2="505.969" y2="700" gradientUnits="userSpaceOnUse">
<stop stop-color="#276152" stop-opacity="0.5"/>
<stop offset="1" stop-color="#1E4D40" stop-opacity="0.25"/>
</linearGradient>
<linearGradient id="paint27_linear_2_3148" x1="0" y1="110" x2="64" y2="110" gradientUnits="userSpaceOnUse">
<stop offset="0.015625" stop-color="white" stop-opacity="0.1"/>
<stop offset="0.015625" stop-opacity="0"/>
</linearGradient>
<linearGradient id="paint28_linear_2_3148" x1="32" y1="0" x2="32" y2="220" gradientUnits="userSpaceOnUse">
<stop offset="0.00454545" stop-color="white" stop-opacity="0.1"/>
<stop offset="0.00454545" stop-opacity="0"/>
</linearGradient>
<linearGradient id="paint29_linear_2_3148" x1="32" y1="220" x2="32" y2="0" gradientUnits="userSpaceOnUse">
<stop stop-color="#276152" stop-opacity="0.3"/>
<stop offset="1" stop-opacity="0"/>
</linearGradient>
<linearGradient id="paint30_linear_2_3148" x1="0" y1="2" x2="64" y2="2" gradientUnits="userSpaceOnUse">
<stop stop-opacity="0"/>
<stop offset="0.0714286" stop-color="#070808" stop-opacity="0.142857"/>
<stop offset="0.142857" stop-color="#222625" stop-opacity="0.285714"/>
<stop offset="0.214286" stop-color="#424947" stop-opacity="0.428571"/>
<stop offset="0.285714" stop-color="#656F6C" stop-opacity="0.571429"/>
<stop offset="0.357143" stop-color="#8A9794" stop-opacity="0.714286"/>
<stop offset="0.428571" stop-color="#B1C1BD" stop-opacity="0.857143"/>
<stop offset="0.5" stop-color="#D9EDE8"/>
<stop offset="0.571429" stop-color="#B1C1BD" stop-opacity="0.857143"/>
<stop offset="0.642857" stop-color="#8A9794" stop-opacity="0.714286"/>
<stop offset="0.714286" stop-color="#656F6C" stop-opacity="0.571429"/>
<stop offset="0.785714" stop-color="#424947" stop-opacity="0.428571"/>
<stop offset="0.857143" stop-color="#222625" stop-opacity="0.285714"/>
<stop offset="0.928571" stop-color="#070808" stop-opacity="0.142857"/>
<stop offset="1" stop-opacity="0"/>
</linearGradient>
<linearGradient id="paint31_linear_2_3148" x1="585.969" y1="920" x2="585.969" y2="730" gradientUnits="userSpaceOnUse">
<stop stop-color="#276152" stop-opacity="0.5"/>
<stop offset="1" stop-color="#1E4D40" stop-opacity="0.25"/>
</linearGradient>
<linearGradient id="paint32_linear_2_3148" x1="0" y1="95" x2="64" y2="95" gradientUnits="userSpaceOnUse">
<stop offset="0.015625" stop-color="white" stop-opacity="0.1"/>
<stop offset="0.015625" stop-opacity="0"/>
</linearGradient>
<linearGradient id="paint33_linear_2_3148" x1="32" y1="0" x2="32" y2="190" gradientUnits="userSpaceOnUse">
<stop offset="0.00526316" stop-color="white" stop-opacity="0.1"/>
<stop offset="0.00526316" stop-opacity="0"/>
</linearGradient>
<linearGradient id="paint34_linear_2_3148" x1="32" y1="190" x2="32" y2="0" gradientUnits="userSpaceOnUse">
<stop stop-color="#276152" stop-opacity="0.3"/>
<stop offset="1" stop-opacity="0"/>
</linearGradient>
<linearGradient id="paint35_linear_2_3148" x1="0" y1="2" x2="64" y2="2" gradientUnits="userSpaceOnUse">
<stop stop-opacity="0"/>
<stop offset="0.0714286" stop-color="#070808" stop-opacity="0.142857"/>
<stop offset="0.142857" stop-color="#222625" stop-opacity="0.285714"/>
<stop offset="0.214286" stop-color="#424947" stop-opacity="0.428571"/>
<stop offset="0.285714" stop-color="#656F6C" stop-opacity="0.571429"/>
<stop offset="0.357143" stop-color="#8A9794" stop-opacity="0.714286"/>
<stop offset="0.428571" stop-color="#B1C1BD" stop-opacity="0.857143"/>
<stop offset="0.5" stop-color="#D9EDE8"/>
<stop offset="0.571429" stop-color="#B1C1BD" stop-opacity="0.857143"/>
<stop offset="0.642857" stop-color="#8A9794" stop-opacity="0.714286"/>
<stop offset="0.714286" stop-color="#656F6C" stop-opacity="0.571429"/>
<stop offset="0.785714" stop-color="#424947" stop-opacity="0.428571"/>
<stop offset="0.857143" stop-color="#222625" stop-opacity="0.285714"/>
<stop offset="0.928571" stop-color="#070808" stop-opacity="0.142857"/>
<stop offset="1" stop-opacity="0"/>
</linearGradient>
<linearGradient id="paint36_linear_2_3148" x1="665.969" y1="920" x2="665.969" y2="660" gradientUnits="userSpaceOnUse">
<stop stop-color="#276152" stop-opacity="0.5"/>
<stop offset="1" stop-color="#1E4D40" stop-opacity="0.25"/>
</linearGradient>
<linearGradient id="paint37_linear_2_3148" x1="0" y1="130" x2="64" y2="130" gradientUnits="userSpaceOnUse">
<stop offset="0.015625" stop-color="white" stop-opacity="0.1"/>
<stop offset="0.015625" stop-opacity="0"/>
</linearGradient>
<linearGradient id="paint38_linear_2_3148" x1="32" y1="0" x2="32" y2="260" gradientUnits="userSpaceOnUse">
<stop offset="0.00384615" stop-color="white" stop-opacity="0.1"/>
<stop offset="0.00384615" stop-opacity="0"/>
</linearGradient>
<linearGradient id="paint39_linear_2_3148" x1="32" y1="260" x2="32" y2="0" gradientUnits="userSpaceOnUse">
<stop stop-color="#276152" stop-opacity="0.3"/>
<stop offset="1" stop-opacity="0"/>
</linearGradient>
<linearGradient id="paint40_linear_2_3148" x1="0" y1="2" x2="64" y2="2" gradientUnits="userSpaceOnUse">
<stop stop-opacity="0"/>
<stop offset="0.0714286" stop-color="#070808" stop-opacity="0.142857"/>
<stop offset="0.142857" stop-color="#222625" stop-opacity="0.285714"/>
<stop offset="0.214286" stop-color="#424947" stop-opacity="0.428571"/>
<stop offset="0.285714" stop-color="#656F6C" stop-opacity="0.571429"/>
<stop offset="0.357143" stop-color="#8A9794" stop-opacity="0.714286"/>
<stop offset="0.428571" stop-color="#B1C1BD" stop-opacity="0.857143"/>
<stop offset="0.5" stop-color="#D9EDE8"/>
<stop offset="0.571429" stop-color="#B1C1BD" stop-opacity="0.857143"/>
<stop offset="0.642857" stop-color="#8A9794" stop-opacity="0.714286"/>
<stop offset="0.714286" stop-color="#656F6C" stop-opacity="0.571429"/>
<stop offset="0.785714" stop-color="#424947" stop-opacity="0.428571"/>
<stop offset="0.857143" stop-color="#222625" stop-opacity="0.285714"/>
<stop offset="0.928571" stop-color="#070808" stop-opacity="0.142857"/>
<stop offset="1" stop-opacity="0"/>
</linearGradient>
<linearGradient id="paint41_linear_2_3148" x1="745.969" y1="920" x2="745.969" y2="750" gradientUnits="userSpaceOnUse">
<stop stop-color="#276152" stop-opacity="0.5"/>
<stop offset="1" stop-color="#1E4D40" stop-opacity="0.25"/>
</linearGradient>
<linearGradient id="paint42_linear_2_3148" x1="0" y1="85" x2="64" y2="85" gradientUnits="userSpaceOnUse">
<stop offset="0.015625" stop-color="white" stop-opacity="0.1"/>
<stop offset="0.015625" stop-opacity="0"/>
</linearGradient>
<linearGradient id="paint43_linear_2_3148" x1="32" y1="0" x2="32" y2="170" gradientUnits="userSpaceOnUse">
<stop offset="0.00588235" stop-color="white" stop-opacity="0.1"/>
<stop offset="0.00588235" stop-opacity="0"/>
</linearGradient>
<linearGradient id="paint44_linear_2_3148" x1="32" y1="170" x2="32" y2="0" gradientUnits="userSpaceOnUse">
<stop stop-color="#276152" stop-opacity="0.3"/>
<stop offset="1" stop-opacity="0"/>
</linearGradient>
<linearGradient id="paint45_linear_2_3148" x1="0" y1="2" x2="64" y2="2" gradientUnits="userSpaceOnUse">
<stop stop-opacity="0"/>
<stop offset="0.0714286" stop-color="#070808" stop-opacity="0.142857"/>
<stop offset="0.142857" stop-color="#222625" stop-opacity="0.285714"/>
<stop offset="0.214286" stop-color="#424947" stop-opacity="0.428571"/>
<stop offset="0.285714" stop-color="#656F6C" stop-opacity="0.571429"/>
<stop offset="0.357143" stop-color="#8A9794" stop-opacity="0.714286"/>
<stop offset="0.428571" stop-color="#B1C1BD" stop-opacity="0.857143"/>
<stop offset="0.5" stop-color="#D9EDE8"/>
<stop offset="0.571429" stop-color="#B1C1BD" stop-opacity="0.857143"/>
<stop offset="0.642857" stop-color="#8A9794" stop-opacity="0.714286"/>
<stop offset="0.714286" stop-color="#656F6C" stop-opacity="0.571429"/>
<stop offset="0.785714" stop-color="#424947" stop-opacity="0.428571"/>
<stop offset="0.857143" stop-color="#222625" stop-opacity="0.285714"/>
<stop offset="0.928571" stop-color="#070808" stop-opacity="0.142857"/>
<stop offset="1" stop-opacity="0"/>
</linearGradient>
<linearGradient id="paint46_linear_2_3148" x1="425.969" y1="952" x2="425.969" y2="0" gradientUnits="userSpaceOnUse">
<stop stop-color="#111827"/>
<stop offset="0.0714286" stop-color="#0C111E" stop-opacity="0.857143"/>
<stop offset="0.142857" stop-color="#070B15" stop-opacity="0.714286"/>
<stop offset="0.214286" stop-color="#03060C" stop-opacity="0.571429"/>
<stop offset="0.285714" stop-color="#010205" stop-opacity="0.428571"/>
<stop offset="0.357143" stop-color="#000102" stop-opacity="0.285714"/>
<stop offset="0.428571" stop-opacity="0.142857"/>
<stop offset="0.5" stop-opacity="0"/>
<stop offset="1" stop-opacity="0"/>
</linearGradient>
<linearGradient id="paint47_linear_2_3148" x1="0" y1="476" x2="851.938" y2="476" gradientUnits="userSpaceOnUse">
<stop stop-color="#111827" stop-opacity="0.5"/>
<stop offset="0.5" stop-opacity="0"/>
<stop offset="1" stop-opacity="0"/>
</linearGradient>
<linearGradient id="paint48_linear_2_3148" x1="0" y1="476" x2="851.938" y2="476" gradientUnits="userSpaceOnUse">
<stop offset="0.00117379" stop-color="#276152" stop-opacity="0.4"/>
<stop offset="0.00117379" stop-opacity="0"/>
</linearGradient>
<linearGradient id="paint49_linear_2_3148" x1="425.969" y1="0" x2="425.969" y2="952" gradientUnits="userSpaceOnUse">
<stop offset="0.00105042" stop-color="#276152" stop-opacity="0.4"/>
<stop offset="0.00105042" stop-opacity="0"/>
</linearGradient>
<clipPath id="clip0_2_3148">
<rect width="851.938" height="952" fill="white"/>
</clipPath>
<clipPath id="clip1_2_3148">
<rect width="851.938" height="952" fill="white"/>
</clipPath>
<clipPath id="clip2_2_3148">
<path d="M73.9688 752C73.9688 745.373 79.3413 740 85.9688 740H125.969C132.596 740 137.969 745.373 137.969 752V920H73.9688V752Z" fill="white"/>
</clipPath>
<clipPath id="clip3_2_3148">
<path d="M153.969 692C153.969 685.373 159.341 680 165.969 680H205.969C212.596 680 217.969 685.373 217.969 692V920H153.969V692Z" fill="white"/>
</clipPath>
<clipPath id="clip4_2_3148">
<path d="M233.969 772C233.969 765.373 239.341 760 245.969 760H285.969C292.596 760 297.969 765.373 297.969 772V920H233.969V772Z" fill="white"/>
</clipPath>
<clipPath id="clip5_2_3148">
<path d="M313.969 652C313.969 645.373 319.341 640 325.969 640H365.969C372.596 640 377.969 645.373 377.969 652V920H313.969V652Z" fill="white"/>
</clipPath>
<clipPath id="clip6_2_3148">
<path d="M393.969 732C393.969 725.373 399.341 720 405.969 720H445.969C452.596 720 457.969 725.373 457.969 732V920H393.969V732Z" fill="white"/>
</clipPath>
<clipPath id="clip7_2_3148">
<path d="M473.969 712C473.969 705.373 479.341 700 485.969 700H525.969C532.596 700 537.969 705.373 537.969 712V920H473.969V712Z" fill="white"/>
</clipPath>
<clipPath id="clip8_2_3148">
<path d="M553.969 742C553.969 735.373 559.341 730 565.969 730H605.969C612.596 730 617.969 735.373 617.969 742V920H553.969V742Z" fill="white"/>
</clipPath>
<clipPath id="clip9_2_3148">
<path d="M633.969 672C633.969 665.373 639.341 660 645.969 660H685.969C692.596 660 697.969 665.373 697.969 672V920H633.969V672Z" fill="white"/>
</clipPath>
<clipPath id="clip10_2_3148">
<path d="M713.969 762C713.969 755.373 719.341 750 725.969 750H765.969C772.596 750 777.969 755.373 777.969 762V920H713.969V762Z" fill="white"/>
</clipPath>
</defs>
</svg>
