<svg width="852" height="952" viewBox="0 0 852 952" fill="none" xmlns="http://www.w3.org/2000/svg">
<g clip-path="url(#clip0_1_7535)">
<rect width="851.938" height="952" fill="#111827"/>
<g clip-path="url(#clip1_1_7535)">
<rect width="851.938" height="952" fill="url(#paint0_radial_1_7535)"/>
<g filter="url(#filter0_d_1_7535)">
<g clip-path="url(#clip2_1_7535)">
<path d="M73.9688 752C73.9688 745.373 79.3413 740 85.9688 740H125.969C132.596 740 137.969 745.373 137.969 752V920H73.9688V752Z" fill="url(#paint1_linear_1_7535)" shape-rendering="crispEdges"/>
<g opacity="0.4">
<rect width="64" height="180" transform="translate(73.9688 740)" fill="url(#paint2_linear_1_7535)"/>
<rect width="64" height="180" transform="translate(73.9688 740)" fill="url(#paint3_linear_1_7535)"/>
</g>
<g opacity="0.306667">
<rect width="64" height="180" transform="translate(73.9688 740)" fill="url(#paint4_linear_1_7535)"/>
</g>
<rect width="64" height="4" transform="translate(73.9688 740)" fill="url(#paint5_linear_1_7535)"/>
</g>
</g>
<g filter="url(#filter1_d_1_7535)">
<g clip-path="url(#clip3_1_7535)">
<path d="M153.969 692C153.969 685.373 159.341 680 165.969 680H205.969C212.596 680 217.969 685.373 217.969 692V920H153.969V692Z" fill="url(#paint6_linear_1_7535)" shape-rendering="crispEdges"/>
<g opacity="0.4">
<rect width="64" height="240" transform="translate(153.969 680)" fill="url(#paint7_linear_1_7535)"/>
<rect width="64" height="240" transform="translate(153.969 680)" fill="url(#paint8_linear_1_7535)"/>
</g>
<g opacity="0.324277">
<rect width="64" height="240" transform="translate(153.969 680)" fill="url(#paint9_linear_1_7535)"/>
</g>
<rect width="64" height="4" transform="translate(153.969 680)" fill="url(#paint10_linear_1_7535)"/>
</g>
</g>
<g filter="url(#filter2_d_1_7535)">
<g clip-path="url(#clip4_1_7535)">
<path d="M233.969 772C233.969 765.373 239.341 760 245.969 760H285.969C292.596 760 297.969 765.373 297.969 772V920H233.969V772Z" fill="url(#paint11_linear_1_7535)" shape-rendering="crispEdges"/>
<g opacity="0.4">
<rect width="64" height="160" transform="translate(233.969 760)" fill="url(#paint12_linear_1_7535)"/>
<rect width="64" height="160" transform="translate(233.969 760)" fill="url(#paint13_linear_1_7535)"/>
</g>
<g opacity="0.353515">
<rect width="64" height="160" transform="translate(233.969 760)" fill="url(#paint14_linear_1_7535)"/>
</g>
<rect width="64" height="4" transform="translate(233.969 760)" fill="url(#paint15_linear_1_7535)"/>
</g>
</g>
<g filter="url(#filter3_d_1_7535)">
<g clip-path="url(#clip5_1_7535)">
<path d="M313.969 652C313.969 645.373 319.341 640 325.969 640H365.969C372.596 640 377.969 645.373 377.969 652V920H313.969V652Z" fill="url(#paint16_linear_1_7535)" shape-rendering="crispEdges"/>
<g opacity="0.4">
<rect width="64" height="280" transform="translate(313.969 640)" fill="url(#paint17_linear_1_7535)"/>
<rect width="64" height="280" transform="translate(313.969 640)" fill="url(#paint18_linear_1_7535)"/>
</g>
<g opacity="0.314047">
<rect width="64" height="280" transform="translate(313.969 640)" fill="url(#paint19_linear_1_7535)"/>
</g>
<rect width="64" height="4" transform="translate(313.969 640)" fill="url(#paint20_linear_1_7535)"/>
</g>
</g>
<g filter="url(#filter4_d_1_7535)">
<g clip-path="url(#clip6_1_7535)">
<path d="M393.969 732C393.969 725.373 399.341 720 405.969 720H445.969C452.596 720 457.969 725.373 457.969 732V920H393.969V732Z" fill="url(#paint21_linear_1_7535)" shape-rendering="crispEdges"/>
<g opacity="0.4">
<rect width="64" height="200" transform="translate(393.969 720)" fill="url(#paint22_linear_1_7535)"/>
<rect width="64" height="200" transform="translate(393.969 720)" fill="url(#paint23_linear_1_7535)"/>
</g>
<g opacity="0.337421">
<rect width="64" height="200" transform="translate(393.969 720)" fill="url(#paint24_linear_1_7535)"/>
</g>
<rect width="64" height="4" transform="translate(393.969 720)" fill="url(#paint25_linear_1_7535)"/>
</g>
</g>
<g filter="url(#filter5_d_1_7535)">
<g clip-path="url(#clip7_1_7535)">
<path d="M473.969 712C473.969 705.373 479.341 700 485.969 700H525.969C532.596 700 537.969 705.373 537.969 712V920H473.969V712Z" fill="url(#paint26_linear_1_7535)" shape-rendering="crispEdges"/>
<g opacity="0.4">
<rect width="64" height="220" transform="translate(473.969 700)" fill="url(#paint27_linear_1_7535)"/>
<rect width="64" height="220" transform="translate(473.969 700)" fill="url(#paint28_linear_1_7535)"/>
</g>
<g opacity="0.372557">
<rect width="64" height="220" transform="translate(473.969 700)" fill="url(#paint29_linear_1_7535)"/>
</g>
<rect width="64" height="4" transform="translate(473.969 700)" fill="url(#paint30_linear_1_7535)"/>
</g>
</g>
<g filter="url(#filter6_d_1_7535)">
<g clip-path="url(#clip8_1_7535)">
<path d="M553.969 742C553.969 735.373 559.341 730 565.969 730H605.969C612.596 730 617.969 735.373 617.969 742V920H553.969V742Z" fill="url(#paint31_linear_1_7535)" shape-rendering="crispEdges"/>
<g opacity="0.4">
<rect width="64" height="190" transform="translate(553.969 730)" fill="url(#paint32_linear_1_7535)"/>
<rect width="64" height="190" transform="translate(553.969 730)" fill="url(#paint33_linear_1_7535)"/>
</g>
<g opacity="0.324277">
<rect width="64" height="190" transform="translate(553.969 730)" fill="url(#paint34_linear_1_7535)"/>
</g>
<rect width="64" height="4" transform="translate(553.969 730)" fill="url(#paint35_linear_1_7535)"/>
</g>
</g>
<g filter="url(#filter7_d_1_7535)">
<g clip-path="url(#clip9_1_7535)">
<path d="M633.969 672C633.969 665.373 639.341 660 645.969 660H685.969C692.596 660 697.969 665.373 697.969 672V920H633.969V672Z" fill="url(#paint36_linear_1_7535)" shape-rendering="crispEdges"/>
<g opacity="0.4">
<rect width="64" height="260" transform="translate(633.969 660)" fill="url(#paint37_linear_1_7535)"/>
<rect width="64" height="260" transform="translate(633.969 660)" fill="url(#paint38_linear_1_7535)"/>
</g>
<g opacity="0.353515">
<rect width="64" height="260" transform="translate(633.969 660)" fill="url(#paint39_linear_1_7535)"/>
</g>
<rect width="64" height="4" transform="translate(633.969 660)" fill="url(#paint40_linear_1_7535)"/>
</g>
</g>
<g filter="url(#filter8_d_1_7535)">
<g clip-path="url(#clip10_1_7535)">
<path d="M713.969 762C713.969 755.373 719.341 750 725.969 750H765.969C772.596 750 777.969 755.373 777.969 762V920H713.969V762Z" fill="url(#paint41_linear_1_7535)" shape-rendering="crispEdges"/>
<g opacity="0.4">
<rect width="64" height="170" transform="translate(713.969 750)" fill="url(#paint42_linear_1_7535)"/>
<rect width="64" height="170" transform="translate(713.969 750)" fill="url(#paint43_linear_1_7535)"/>
</g>
<g opacity="0.314047">
<rect width="64" height="170" transform="translate(713.969 750)" fill="url(#paint44_linear_1_7535)"/>
</g>
<rect width="64" height="4" transform="translate(713.969 750)" fill="url(#paint45_linear_1_7535)"/>
</g>
</g>
<g opacity="0.938473">
<path d="M426.347 951.744C426.347 950.639 427.242 949.744 428.347 949.744C429.452 949.744 430.347 950.639 430.347 951.744C430.347 952.848 429.452 953.744 428.347 953.744C427.242 953.744 426.347 952.848 426.347 951.744Z" fill="#276152"/>
</g>
<g opacity="0.265983">
<path d="M426.713 949.834C426.713 948.729 427.609 947.834 428.713 947.834C429.818 947.834 430.713 948.729 430.713 949.834C430.713 950.939 429.818 951.834 428.713 951.834C427.609 951.834 426.713 950.939 426.713 949.834Z" fill="#276152"/>
</g>
<g opacity="0.197467">
<path d="M425.798 953.522C425.798 952.417 426.694 951.522 427.798 951.522C428.903 951.522 429.798 952.417 429.798 953.522C429.798 954.627 428.903 955.522 427.798 955.522C426.694 955.522 425.798 954.627 425.798 953.522Z" fill="#276152"/>
</g>
<g opacity="0.0814182">
<path d="M425.747 949.391C425.747 948.286 426.642 947.391 427.747 947.391C428.851 947.391 429.747 948.286 429.747 949.391C429.747 950.495 428.851 951.391 427.747 951.391C426.642 951.391 425.747 950.495 425.747 949.391Z" fill="#276152"/>
</g>
<g opacity="0.674859">
<path d="M426.832 950.815C426.832 949.711 427.727 948.815 428.832 948.815C429.936 948.815 430.832 949.711 430.832 950.815C430.832 951.92 429.936 952.815 428.832 952.815C427.727 952.815 426.832 951.92 426.832 950.815Z" fill="#276152"/>
</g>
<g opacity="0.755839">
<path d="M426.067 952.182C426.067 951.077 426.962 950.182 428.067 950.182C429.172 950.182 430.067 951.077 430.067 952.182C430.067 953.286 429.172 954.182 428.067 954.182C426.962 954.182 426.067 953.286 426.067 952.182Z" fill="#276152"/>
</g>
<g opacity="0.226572">
<path d="M427.59 949.74C427.59 948.635 428.485 947.74 429.59 947.74C430.694 947.74 431.59 948.635 431.59 949.74C431.59 950.844 430.694 951.74 429.59 951.74C428.485 951.74 427.59 950.844 427.59 949.74Z" fill="#276152"/>
</g>
<g opacity="0.928427">
<path d="M427.486 951.424C427.486 950.32 428.381 949.424 429.486 949.424C430.59 949.424 431.486 950.32 431.486 951.424C431.486 952.529 430.59 953.424 429.486 953.424C428.381 953.424 427.486 952.529 427.486 951.424Z" fill="#276152"/>
</g>
<g opacity="0.0634808">
<path d="M425.496 953.844C425.496 952.739 426.392 951.844 427.496 951.844C428.601 951.844 429.496 952.739 429.496 953.844C429.496 954.948 428.601 955.844 427.496 955.844C426.392 955.844 425.496 954.948 425.496 953.844Z" fill="#276152"/>
</g>
<g opacity="0.790877">
<path d="M427.242 952.098C427.242 950.993 428.137 950.098 429.242 950.098C430.346 950.098 431.242 950.993 431.242 952.098C431.242 953.202 430.346 954.098 429.242 954.098C428.137 954.098 427.242 953.202 427.242 952.098Z" fill="#276152"/>
</g>
<g opacity="0.210777">
<path d="M425.153 949.701C425.153 948.596 426.048 947.701 427.153 947.701C428.257 947.701 429.153 948.596 429.153 949.701C429.153 950.805 428.257 951.701 427.153 951.701C426.048 951.701 425.153 950.805 425.153 949.701Z" fill="#276152"/>
</g>
<g opacity="0.167826">
<path d="M425.002 949.598C425.002 948.494 425.897 947.598 427.002 947.598C428.106 947.598 429.002 948.494 429.002 949.598C429.002 950.703 428.106 951.598 427.002 951.598C425.897 951.598 425.002 950.703 425.002 949.598Z" fill="#276152"/>
</g>
<g opacity="0.79902">
<path d="M424.027 951.114C424.027 950.009 424.923 949.114 426.027 949.114C427.132 949.114 428.027 950.009 428.027 951.114C428.027 952.218 427.132 953.114 426.027 953.114C424.923 953.114 424.027 952.218 424.027 951.114Z" fill="#276152"/>
</g>
<g opacity="0.0760662">
<path d="M426.521 949.378C426.521 948.273 427.417 947.378 428.521 947.378C429.626 947.378 430.521 948.273 430.521 949.378C430.521 950.482 429.626 951.378 428.521 951.378C427.417 951.378 426.521 950.482 426.521 949.378Z" fill="#276152"/>
</g>
<g opacity="0.347122">
<path d="M425.838 950.029C425.838 948.924 426.734 948.029 427.838 948.029C428.943 948.029 429.838 948.924 429.838 950.029C429.838 951.134 428.943 952.029 427.838 952.029C426.734 952.029 425.838 951.134 425.838 950.029Z" fill="#276152"/>
</g>
</g>
<rect width="851.938" height="952" fill="url(#paint46_linear_1_7535)"/>
<rect width="851.938" height="952" fill="url(#paint47_linear_1_7535)"/>
<g opacity="0.1">
<rect width="851.938" height="952" fill="url(#paint48_linear_1_7535)"/>
<rect width="851.938" height="952" fill="url(#paint49_linear_1_7535)"/>
</g>
<path d="M114.42 854L113.244 850.472H105.432L104.256 854H100.084L106.944 834.4H111.732L118.62 854H114.42ZM106.664 846.86H112.04L109.352 838.852L106.664 846.86ZM140.112 844.2C140.112 846.748 139.216 849.044 137.704 850.808L139.72 852.908L136.976 855.344L134.848 853.132C133.392 853.944 131.712 854.392 129.92 854.392C124.292 854.392 119.756 849.912 119.756 844.2C119.756 838.46 124.292 834.008 129.92 834.008C135.548 834.008 140.112 838.46 140.112 844.2ZM129.92 850.612C130.676 850.612 131.432 850.472 132.104 850.248L128.884 846.888L131.628 844.452L135.072 848.036C135.8 847 136.248 845.684 136.248 844.2C136.248 840.42 133.448 837.76 129.92 837.76C126.392 837.76 123.592 840.42 123.592 844.2C123.592 847.952 126.392 850.612 129.92 850.612ZM155.509 850.304H163.769V854H151.645V834.4H163.629V838.096H155.509V842.268H162.929V845.908H155.509V850.304ZM170.496 843.976C170.496 846.048 177.72 844.76 177.72 849.912C177.72 852.936 175.088 854.392 172.092 854.392C169.292 854.392 167.22 853.216 166.212 851.06L169.348 849.296C169.74 850.444 170.692 851.116 172.092 851.116C173.24 851.116 174.024 850.724 174.024 849.912C174.024 847.868 166.8 848.988 166.8 844.06C166.8 841.204 169.236 839.608 172.12 839.608C174.388 839.608 176.348 840.644 177.44 842.576L174.36 844.256C173.94 843.36 173.156 842.828 172.12 842.828C171.224 842.828 170.496 843.22 170.496 843.976ZM188.481 843.472H185.317V849.296C185.317 850.808 186.409 850.836 188.481 850.724V854C183.413 854.56 181.705 853.076 181.705 849.296V843.472H179.269V840H181.705V837.172L185.317 836.08V840H188.481V843.472ZM202.07 840H205.682V854H202.07V852.348C201.062 853.608 199.55 854.392 197.506 854.392C193.782 854.392 190.702 851.172 190.702 847C190.702 842.828 193.782 839.608 197.506 839.608C199.55 839.608 201.062 840.392 202.07 841.652V840ZM198.178 850.948C200.418 850.948 202.07 849.352 202.07 847C202.07 844.648 200.418 843.052 198.178 843.052C195.966 843.052 194.314 844.648 194.314 847C194.314 849.352 195.966 850.948 198.178 850.948ZM217.806 843.472H214.642V849.296C214.642 850.808 215.734 850.836 217.806 850.724V854C212.738 854.56 211.03 853.076 211.03 849.296V843.472H208.594V840H211.03V837.172L214.642 836.08V840H217.806V843.472ZM223.807 848.484C224.311 850.332 225.851 851.116 227.755 851.116C229.155 851.116 230.275 850.528 230.891 849.716L233.803 851.396C232.487 853.3 230.387 854.392 227.699 854.392C222.995 854.392 220.027 851.172 220.027 847C220.027 842.828 223.023 839.608 227.419 839.608C231.563 839.608 234.503 842.884 234.503 847C234.503 847.532 234.447 848.008 234.363 848.484H223.807ZM223.751 845.684H230.891C230.443 843.668 228.931 842.856 227.419 842.856C225.487 842.856 224.171 843.892 223.751 845.684Z" fill="white"/>
<path d="M74.75 860.65C72.4 861.725 69.8 862.35 67.05 862.35C63.1 862.35 59.45 861.1 56.475 859C54.575 857.65 52.925 855.95 51.65 854L55.725 846.925C56.375 849.45 57.825 851.625 59.825 853.2C61.825 854.775 64.325 855.7 67.05 855.7C69.775 855.7 70.05 855.4 71.375 854.875L74.725 860.7L74.75 860.65Z" fill="#D7C2A3"/>
<path d="M85.4 843.975C85.4 846.225 85 848.4 84.25 850.4L77.325 838.4L77.275 838.325C77.2 838.175 77.125 838.05 77.05 837.925C75.75 835.75 73.775 834.075 71.425 833.15C71.025 833 70.625 832.85 70.225 832.75C69.225 832.475 68.175 832.325 67.1 832.325C66.025 832.325 64.95 832.475 63.975 832.75C63.575 832.875 63.175 833 62.775 833.15C61.725 833.575 60.75 834.125 59.875 834.825C58.775 835.675 57.85 836.75 57.125 837.95L56.975 838.225L49.875 850.4C49.125 848.4 48.725 846.225 48.725 843.975C48.725 837.775 51.8 832.3 56.5 828.975C57.4 828.325 58.375 827.775 59.375 827.3C60.825 826.625 62.4 826.125 64.05 825.85C64.725 825.725 65.425 825.65 66.125 825.625C66.45 825.625 66.75 825.625 67.075 825.625C67.4 825.625 67.7 825.625 68.025 825.625C68.725 825.65 69.425 825.75 70.1 825.85C71.75 826.125 73.3 826.6 74.775 827.3C81.075 830.2 85.425 836.575 85.425 843.95L85.4 843.975Z" fill="#D7C2A3"/>
<path d="M87.275 862.325H79.575L77.625 858.975L74.275 853.15L72.575 850.225L70.85 847.225L68.525 843.2L68.45 843.075V843.025C68.125 842.575 67.6 842.3 67.025 842.3C66.45 842.3 65.85 842.65 65.55 843.175L65.1 843.975L63.225 847.225L61.5 850.225L59.8 853.15C57.825 851.6 56.35 849.4 55.7 846.875L59.675 840L59.875 839.65C60.3 838.925 60.85 838.275 61.475 837.725C62.3 836.975 63.275 836.4 64.375 836.05C65.2 835.775 66.1 835.625 67.025 835.625C67.95 835.625 68.825 835.775 69.675 836.05C71.55 836.675 73.15 837.95 74.15 839.625L74.35 840L78.325 846.9L82.4 853.975L87.225 862.35L87.275 862.325Z" fill="#276152"/>
<path d="M49.6 882.8H54C55.536 882.8 56.816 883.344 57.824 884.416C58.848 885.488 59.36 886.816 59.36 888.4C59.36 889.968 58.848 891.296 57.824 892.384C56.816 893.456 55.536 894 54 894H49.6V889.312H48.608V887.76H49.6V882.8ZM51.44 892.24H54C55.056 892.24 55.92 891.872 56.576 891.152C57.248 890.432 57.584 889.504 57.584 888.4C57.584 887.28 57.248 886.368 56.576 885.648C55.92 884.928 55.056 884.56 54 884.56H51.44V887.76H54.016V889.312H51.44V892.24ZM66.5619 885.04L65.7779 883.936L64.9939 885.04H63.3619L64.9299 882.96H66.6099L68.1939 885.04H66.5619ZM67.7459 887.136V886H69.4739V894H67.7459V892.848C67.0899 893.76 66.1619 894.208 64.9459 894.208C63.8419 894.208 62.9139 893.808 62.1299 892.992C61.3459 892.176 60.9619 891.168 60.9619 890C60.9619 888.816 61.3459 887.824 62.1299 887.008C62.9139 886.192 63.8419 885.792 64.9459 885.792C66.1619 885.792 67.0899 886.24 67.7459 887.136ZM63.4099 891.84C63.8899 892.32 64.4979 892.56 65.2179 892.56C65.9379 892.56 66.5459 892.32 67.0259 891.84C67.5059 891.344 67.7459 890.736 67.7459 890C67.7459 889.264 67.5059 888.656 67.0259 888.176C66.5459 887.68 65.9379 887.44 65.2179 887.44C64.4979 887.44 63.8899 887.68 63.4099 888.176C62.9299 888.656 62.6899 889.264 62.6899 890C62.6899 890.736 62.9299 891.344 63.4099 891.84ZM69.2499 883.52H67.6979L66.1139 881.504H68.0499L69.2499 883.52ZM77.36 890.288V886H79.088V894H77.36V892.976C76.832 893.792 76.016 894.208 74.88 894.208C73.04 894.208 71.808 892.96 71.808 890.912V886H73.536V890.736C73.536 891.936 74.224 892.592 75.328 892.592C76.544 892.592 77.36 891.84 77.36 890.288ZM90.5326 886V887.664H88.5486V891.504C88.5486 892.528 89.2206 892.512 90.5326 892.448V894C87.8926 894.32 86.8206 893.6 86.8206 891.504V887.664H85.3486V886H86.8206V884.272L88.5486 883.76V886H90.5326ZM98.05 890.288V886H99.074C99.666 886 99.762 885.744 99.762 885.136V884.864H101.218V885.136C101.218 886.4 100.834 887.04 99.778 887.216V894H98.05V892.976C97.522 893.792 96.706 894.208 95.57 894.208C93.73 894.208 92.498 892.96 92.498 890.912V886H94.226V890.736C94.226 891.936 94.914 892.592 96.018 892.592C97.234 892.592 98.05 891.84 98.05 890.288ZM111.287 885.792C112.391 885.792 113.319 886.192 114.103 887.008C114.887 887.824 115.271 888.816 115.271 890C115.271 891.168 114.887 892.176 114.103 892.992C113.319 893.808 112.391 894.208 111.287 894.208C110.071 894.208 109.143 893.76 108.487 892.848V894H106.759V882.8H108.487V887.136C109.143 886.24 110.071 885.792 111.287 885.792ZM109.207 891.84C109.687 892.32 110.295 892.56 111.015 892.56C111.735 892.56 112.343 892.32 112.823 891.84C113.303 891.344 113.543 890.736 113.543 890C113.543 889.264 113.303 888.656 112.823 888.176C112.343 887.68 111.735 887.44 111.015 887.44C110.295 887.44 109.687 887.68 109.207 888.176C108.727 888.656 108.487 889.264 108.487 890C108.487 890.736 108.727 891.344 109.207 891.84ZM122.469 885.04L121.685 883.936L120.901 885.04H119.269L120.837 882.96H122.517L124.101 885.04H122.469ZM123.653 887.136V886H125.381V894H123.653V892.848C122.997 893.76 122.069 894.208 120.853 894.208C119.749 894.208 118.821 893.808 118.037 892.992C117.253 892.176 116.869 891.168 116.869 890C116.869 888.816 117.253 887.824 118.037 887.008C118.821 886.192 119.749 885.792 120.853 885.792C122.069 885.792 122.997 886.24 123.653 887.136ZM119.317 891.84C119.797 892.32 120.405 892.56 121.125 892.56C121.845 892.56 122.453 892.32 122.933 891.84C123.413 891.344 123.653 890.736 123.653 890C123.653 889.264 123.413 888.656 122.933 888.176C122.453 887.68 121.845 887.44 121.125 887.44C120.405 887.44 119.797 887.68 119.317 888.176C118.837 888.656 118.597 889.264 118.597 890C118.597 890.736 118.837 891.344 119.317 891.84ZM123.333 883.52L124.517 881.504H126.453L124.869 883.52H123.333ZM132.339 886V887.664H130.355V891.504C130.355 892.528 131.027 892.512 132.339 892.448V894C129.699 894.32 128.627 893.6 128.627 891.504V887.664H127.155V886H128.627V884.272L130.355 883.76V886H132.339ZM147.008 883.84H148.048V885.024H147.008V894H145.28V892.848C144.624 893.76 143.696 894.208 142.48 894.208C141.376 894.208 140.448 893.808 139.664 892.992C138.88 892.176 138.496 891.168 138.496 890C138.496 888.816 138.88 887.824 139.664 887.008C140.448 886.192 141.376 885.792 142.48 885.792C143.696 885.792 144.624 886.24 145.28 887.136V885.024H142.688V883.84H145.28V882.8H147.008V883.84ZM140.944 891.84C141.424 892.32 142.032 892.56 142.752 892.56C143.472 892.56 144.08 892.32 144.56 891.84C145.04 891.344 145.28 890.736 145.28 890C145.28 889.264 145.04 888.656 144.56 888.176C144.08 887.68 143.472 887.44 142.752 887.44C142.032 887.44 141.424 887.68 140.944 888.176C140.464 888.656 140.224 889.264 140.224 890C140.224 890.736 140.464 891.344 140.944 891.84ZM154.188 884.96L153.404 883.856L152.62 884.96H150.988L152.556 882.88H154.236L155.82 884.96H154.188ZM153.388 885.792C154.572 885.792 155.564 886.192 156.38 887.008C157.196 887.824 157.612 888.816 157.612 890C157.612 891.184 157.196 892.176 156.38 892.992C155.564 893.808 154.572 894.208 153.388 894.208C152.22 894.208 151.212 893.808 150.396 892.992C149.58 892.176 149.164 891.184 149.164 890C149.164 888.816 149.58 887.824 150.396 887.008C151.212 886.192 152.22 885.792 153.388 885.792ZM151.612 891.808C152.092 892.288 152.684 892.528 153.388 892.528C154.092 892.528 154.684 892.288 155.164 891.808C155.644 891.328 155.884 890.72 155.884 890C155.884 889.28 155.644 888.672 155.164 888.192C154.684 887.712 154.092 887.472 153.388 887.472C152.684 887.472 152.092 887.712 151.612 888.192C151.132 888.672 150.892 889.28 150.892 890C150.892 890.72 151.132 891.328 151.612 891.808ZM154.156 897.2C153.724 897.616 153.084 897.616 152.636 897.2C152.22 896.752 152.22 896.112 152.636 895.68C153.068 895.248 153.74 895.248 154.172 895.68C154.588 896.112 154.588 896.752 154.156 897.2ZM163.862 885.792C165.702 885.792 166.934 887.04 166.934 889.088V894H165.206V889.264C165.206 888.064 164.518 887.408 163.414 887.408C162.198 887.408 161.382 888.16 161.382 889.712V894H159.654V886H161.382V887.024C161.91 886.208 162.726 885.792 163.862 885.792ZM175.643 887.184V886H177.339V893.632C177.339 894.848 176.939 895.776 176.139 896.432C175.339 897.088 174.363 897.408 173.227 897.408C171.387 897.408 170.123 896.768 169.435 895.472L170.923 894.608C171.339 895.424 172.123 895.84 173.259 895.84C174.747 895.84 175.643 895.024 175.643 893.632V892.656C174.987 893.584 174.059 894.048 172.859 894.048C171.723 894.048 170.779 893.648 169.995 892.848C169.211 892.032 168.827 891.056 168.827 889.92C168.827 888.784 169.211 887.808 169.995 887.008C170.779 886.192 171.723 885.792 172.859 885.792C174.059 885.792 174.987 886.256 175.643 887.184ZM171.275 891.712C171.771 892.192 172.379 892.432 173.099 892.432C173.819 892.432 174.427 892.192 174.907 891.712C175.403 891.232 175.643 890.64 175.643 889.92C175.643 889.2 175.403 888.608 174.907 888.128C174.427 887.648 173.819 887.408 173.099 887.408C172.379 887.408 171.771 887.648 171.275 888.128C170.795 888.608 170.555 889.2 170.555 889.92C170.555 890.64 170.795 891.232 171.275 891.712ZM185.865 888.208C185.865 888.736 186.537 889.008 187.369 889.248C188.601 889.52 190.201 890.032 190.169 891.744C190.169 892.512 189.865 893.12 189.273 893.552C188.681 893.984 187.945 894.208 187.049 894.208C185.465 894.208 184.297 893.504 183.785 892.336L185.273 891.472C185.545 892.24 186.137 892.624 187.049 892.624C187.961 892.624 188.409 892.32 188.409 891.728C188.409 891.216 187.737 890.912 186.889 890.704C185.689 890.4 184.073 889.92 184.105 888.24C184.105 887.504 184.377 886.912 184.937 886.464C185.497 886.016 186.201 885.792 187.033 885.792C188.361 885.792 189.433 886.416 189.993 887.456L188.537 888.272C188.265 887.664 187.753 887.36 187.033 887.36C186.377 887.36 185.865 887.648 185.865 888.208ZM197.592 885.04H196.408C196.408 884.288 196.504 884.112 196.904 883.792C196.904 883.792 197.112 883.664 197.096 883.68C197.176 883.632 197.336 883.552 197.336 883.328C197.336 883.2 197.256 883.12 197.016 883.12C196.744 883.12 196.44 883.232 196.312 883.632L195.256 883.184C195.592 882.4 196.168 882.016 197.016 882.016C197.88 882.016 198.52 882.48 198.52 883.312C198.52 883.936 198.168 884.304 197.848 884.48C197.656 884.576 197.544 884.656 197.592 885.04ZM198.504 887.136V886H200.232V894H198.504V892.848C197.848 893.76 196.92 894.208 195.704 894.208C194.6 894.208 193.672 893.808 192.888 892.992C192.104 892.176 191.72 891.168 191.72 890C191.72 888.816 192.104 887.824 192.888 887.008C193.672 886.192 194.6 885.792 195.704 885.792C196.92 885.792 197.848 886.24 198.504 887.136ZM194.168 891.84C194.648 892.32 195.256 892.56 195.976 892.56C196.696 892.56 197.304 892.32 197.784 891.84C198.264 891.344 198.504 890.736 198.504 890C198.504 889.264 198.264 888.656 197.784 888.176C197.304 887.68 196.696 887.44 195.976 887.44C195.256 887.44 194.648 887.68 194.168 888.176C193.688 888.656 193.448 889.264 193.448 890C193.448 890.736 193.688 891.344 194.168 891.84ZM206.934 885.792C208.774 885.792 210.006 887.04 210.006 889.088V894H208.278V889.264C208.278 888.064 207.59 887.408 206.486 887.408C205.27 887.408 204.454 888.16 204.454 889.712V894H202.726V886H204.454V887.024C204.982 886.208 205.798 885.792 206.934 885.792ZM221.291 886V887.664H219.307V891.504C219.307 892.528 219.979 892.512 221.291 892.448V894C218.651 894.32 217.579 893.6 217.579 891.504V887.664H216.107V886H217.579V884.272L219.307 883.76V886H221.291ZM227.624 885.792C229.464 885.792 230.696 887.04 230.696 889.088V894H228.968V889.264C228.968 888.064 228.28 887.408 227.176 887.408C225.96 887.408 225.144 888.16 225.144 889.712V894H223.416V882.8H225.144V887.024C225.672 886.208 226.488 885.792 227.624 885.792ZM237.661 884.96L236.829 883.776L235.981 884.96H234.221L235.917 882.72H237.725L239.421 884.96H237.661ZM236.813 885.792C237.997 885.792 238.989 886.192 239.805 887.008C240.621 887.824 241.037 888.816 241.037 890C241.037 891.184 240.621 892.176 239.805 892.992C238.989 893.808 237.997 894.208 236.813 894.208C235.645 894.208 234.637 893.808 233.821 892.992C233.005 892.176 232.589 891.184 232.589 890C232.589 888.816 233.005 887.824 233.821 887.008C234.637 886.192 235.645 885.792 236.813 885.792ZM235.037 891.808C235.517 892.288 236.109 892.528 236.813 892.528C237.517 892.528 238.109 892.288 238.589 891.808C239.069 891.328 239.309 890.72 239.309 890C239.309 889.28 239.069 888.672 238.589 888.192C238.109 887.712 237.517 887.472 236.813 887.472C236.109 887.472 235.517 887.712 235.037 888.192C234.557 888.672 234.317 889.28 234.317 890C234.317 890.72 234.557 891.328 235.037 891.808ZM247.287 885.792C249.127 885.792 250.359 887.04 250.359 889.088V894H248.631V889.264C248.631 888.064 247.943 887.408 246.839 887.408C245.623 887.408 244.807 888.16 244.807 889.712V894H243.079V886H244.807V887.024C245.335 886.208 246.151 885.792 247.287 885.792ZM259.068 887.184V886H260.764V893.632C260.764 894.848 260.364 895.776 259.564 896.432C258.764 897.088 257.788 897.408 256.652 897.408C254.812 897.408 253.548 896.768 252.86 895.472L254.348 894.608C254.764 895.424 255.548 895.84 256.684 895.84C258.172 895.84 259.068 895.024 259.068 893.632V892.656C258.412 893.584 257.484 894.048 256.284 894.048C255.148 894.048 254.204 893.648 253.42 892.848C252.636 892.032 252.252 891.056 252.252 889.92C252.252 888.784 252.636 887.808 253.42 887.008C254.204 886.192 255.148 885.792 256.284 885.792C257.484 885.792 258.412 886.256 259.068 887.184ZM254.7 891.712C255.196 892.192 255.804 892.432 256.524 892.432C257.244 892.432 257.852 892.192 258.332 891.712C258.828 891.232 259.068 890.64 259.068 889.92C259.068 889.2 258.828 888.608 258.332 888.128C257.852 887.648 257.244 887.408 256.524 887.408C255.804 887.408 255.196 887.648 254.7 888.128C254.22 888.608 253.98 889.2 253.98 889.92C253.98 890.64 254.22 891.232 254.7 891.712ZM276.474 885.792C278.282 885.792 279.498 887.056 279.498 889.04V894H277.77V889.152C277.77 888.048 277.178 887.408 276.218 887.408C275.146 887.408 274.474 888.112 274.474 889.52V894H272.746V889.152C272.746 888.048 272.202 887.408 271.242 887.408C270.202 887.408 269.466 888.128 269.466 889.52V894H267.738V886H269.466V886.96C269.978 886.176 270.746 885.792 271.754 885.792C272.778 885.792 273.53 886.208 274.026 887.056C274.554 886.208 275.37 885.792 276.474 885.792ZM283.443 884.752C283.011 885.168 282.371 885.168 281.923 884.752C281.507 884.304 281.507 883.664 281.923 883.232C282.355 882.8 283.027 882.8 283.459 883.232C283.875 883.664 283.875 884.304 283.443 884.752ZM283.555 894H281.827V886H283.555V894ZM290.25 885.792C292.09 885.792 293.322 887.04 293.322 889.088V894H291.594V889.264C291.594 888.064 290.906 887.408 289.802 887.408C288.586 887.408 287.77 888.16 287.77 889.712V894H286.042V886H287.77V887.024C288.298 886.208 289.114 885.792 290.25 885.792ZM299.87 885.792C301.71 885.792 302.942 887.04 302.942 889.088V894H301.214V889.264C301.214 888.064 300.526 887.408 299.422 887.408C298.206 887.408 297.39 888.16 297.39 889.712V894H295.662V882.8H297.39V887.024C297.918 886.208 298.734 885.792 299.87 885.792ZM313.971 885.792C315.811 885.792 317.043 887.04 317.043 889.088V894H315.315V889.264C315.315 888.064 314.627 887.408 313.523 887.408C312.307 887.408 311.491 888.16 311.491 889.712V894H309.763V882.8H311.491V887.024C312.019 886.208 312.835 885.792 313.971 885.792ZM323.16 894.208C321.992 894.208 320.984 893.808 320.168 892.992C319.352 892.176 318.936 891.184 318.936 890C318.936 888.816 319.352 887.824 320.168 887.008C320.984 886.192 321.992 885.792 323.16 885.792C323.656 885.792 324.104 885.856 324.536 886H325.24C325.832 886 325.928 885.744 325.928 885.136V884.864H327.384V885.136C327.384 886.256 327.08 886.896 326.28 887.136C327.016 887.936 327.384 888.88 327.384 890C327.384 891.184 326.968 892.176 326.152 892.992C325.336 893.808 324.344 894.208 323.16 894.208ZM321.384 891.808C321.864 892.288 322.456 892.528 323.16 892.528C323.864 892.528 324.456 892.288 324.936 891.808C325.416 891.328 325.656 890.72 325.656 890C325.656 889.28 325.416 888.672 324.936 888.192C324.456 887.712 323.864 887.472 323.16 887.472C322.456 887.472 321.864 887.712 321.384 888.192C320.904 888.672 320.664 889.28 320.664 890C320.664 890.72 320.904 891.328 321.384 891.808ZM333.634 885.792C335.474 885.792 336.706 887.04 336.706 889.088V894H334.978V889.264C334.978 888.064 334.29 887.408 333.186 887.408C331.97 887.408 331.154 888.16 331.154 889.712V894H329.426V886H331.154V887.024C331.682 886.208 332.498 885.792 333.634 885.792Z" fill="white"/>
</g>
<defs>
<filter id="filter0_d_1_7535" x="70.9688" y="738" width="70" height="186" filterUnits="userSpaceOnUse" color-interpolation-filters="sRGB">
<feFlood flood-opacity="0" result="BackgroundImageFix"/>
<feColorMatrix in="SourceAlpha" type="matrix" values="0 0 0 0 0 0 0 0 0 0 0 0 0 0 0 0 0 0 127 0" result="hardAlpha"/>
<feOffset dy="1"/>
<feGaussianBlur stdDeviation="1.5"/>
<feComposite in2="hardAlpha" operator="out"/>
<feColorMatrix type="matrix" values="0 0 0 0 0 0 0 0 0 0 0 0 0 0 0 0 0 0 0.08 0"/>
<feBlend mode="normal" in2="BackgroundImageFix" result="effect1_dropShadow_1_7535"/>
<feBlend mode="normal" in="SourceGraphic" in2="effect1_dropShadow_1_7535" result="shape"/>
</filter>
<filter id="filter1_d_1_7535" x="150.969" y="678" width="70" height="246" filterUnits="userSpaceOnUse" color-interpolation-filters="sRGB">
<feFlood flood-opacity="0" result="BackgroundImageFix"/>
<feColorMatrix in="SourceAlpha" type="matrix" values="0 0 0 0 0 0 0 0 0 0 0 0 0 0 0 0 0 0 127 0" result="hardAlpha"/>
<feOffset dy="1"/>
<feGaussianBlur stdDeviation="1.5"/>
<feComposite in2="hardAlpha" operator="out"/>
<feColorMatrix type="matrix" values="0 0 0 0 0 0 0 0 0 0 0 0 0 0 0 0 0 0 0.08 0"/>
<feBlend mode="normal" in2="BackgroundImageFix" result="effect1_dropShadow_1_7535"/>
<feBlend mode="normal" in="SourceGraphic" in2="effect1_dropShadow_1_7535" result="shape"/>
</filter>
<filter id="filter2_d_1_7535" x="230.969" y="758" width="70" height="166" filterUnits="userSpaceOnUse" color-interpolation-filters="sRGB">
<feFlood flood-opacity="0" result="BackgroundImageFix"/>
<feColorMatrix in="SourceAlpha" type="matrix" values="0 0 0 0 0 0 0 0 0 0 0 0 0 0 0 0 0 0 127 0" result="hardAlpha"/>
<feOffset dy="1"/>
<feGaussianBlur stdDeviation="1.5"/>
<feComposite in2="hardAlpha" operator="out"/>
<feColorMatrix type="matrix" values="0 0 0 0 0 0 0 0 0 0 0 0 0 0 0 0 0 0 0.08 0"/>
<feBlend mode="normal" in2="BackgroundImageFix" result="effect1_dropShadow_1_7535"/>
<feBlend mode="normal" in="SourceGraphic" in2="effect1_dropShadow_1_7535" result="shape"/>
</filter>
<filter id="filter3_d_1_7535" x="310.969" y="638" width="70" height="286" filterUnits="userSpaceOnUse" color-interpolation-filters="sRGB">
<feFlood flood-opacity="0" result="BackgroundImageFix"/>
<feColorMatrix in="SourceAlpha" type="matrix" values="0 0 0 0 0 0 0 0 0 0 0 0 0 0 0 0 0 0 127 0" result="hardAlpha"/>
<feOffset dy="1"/>
<feGaussianBlur stdDeviation="1.5"/>
<feComposite in2="hardAlpha" operator="out"/>
<feColorMatrix type="matrix" values="0 0 0 0 0 0 0 0 0 0 0 0 0 0 0 0 0 0 0.08 0"/>
<feBlend mode="normal" in2="BackgroundImageFix" result="effect1_dropShadow_1_7535"/>
<feBlend mode="normal" in="SourceGraphic" in2="effect1_dropShadow_1_7535" result="shape"/>
</filter>
<filter id="filter4_d_1_7535" x="390.969" y="718" width="70" height="206" filterUnits="userSpaceOnUse" color-interpolation-filters="sRGB">
<feFlood flood-opacity="0" result="BackgroundImageFix"/>
<feColorMatrix in="SourceAlpha" type="matrix" values="0 0 0 0 0 0 0 0 0 0 0 0 0 0 0 0 0 0 127 0" result="hardAlpha"/>
<feOffset dy="1"/>
<feGaussianBlur stdDeviation="1.5"/>
<feComposite in2="hardAlpha" operator="out"/>
<feColorMatrix type="matrix" values="0 0 0 0 0 0 0 0 0 0 0 0 0 0 0 0 0 0 0.08 0"/>
<feBlend mode="normal" in2="BackgroundImageFix" result="effect1_dropShadow_1_7535"/>
<feBlend mode="normal" in="SourceGraphic" in2="effect1_dropShadow_1_7535" result="shape"/>
</filter>
<filter id="filter5_d_1_7535" x="470.969" y="698" width="70" height="226" filterUnits="userSpaceOnUse" color-interpolation-filters="sRGB">
<feFlood flood-opacity="0" result="BackgroundImageFix"/>
<feColorMatrix in="SourceAlpha" type="matrix" values="0 0 0 0 0 0 0 0 0 0 0 0 0 0 0 0 0 0 127 0" result="hardAlpha"/>
<feOffset dy="1"/>
<feGaussianBlur stdDeviation="1.5"/>
<feComposite in2="hardAlpha" operator="out"/>
<feColorMatrix type="matrix" values="0 0 0 0 0 0 0 0 0 0 0 0 0 0 0 0 0 0 0.08 0"/>
<feBlend mode="normal" in2="BackgroundImageFix" result="effect1_dropShadow_1_7535"/>
<feBlend mode="normal" in="SourceGraphic" in2="effect1_dropShadow_1_7535" result="shape"/>
</filter>
<filter id="filter6_d_1_7535" x="550.969" y="728" width="70" height="196" filterUnits="userSpaceOnUse" color-interpolation-filters="sRGB">
<feFlood flood-opacity="0" result="BackgroundImageFix"/>
<feColorMatrix in="SourceAlpha" type="matrix" values="0 0 0 0 0 0 0 0 0 0 0 0 0 0 0 0 0 0 127 0" result="hardAlpha"/>
<feOffset dy="1"/>
<feGaussianBlur stdDeviation="1.5"/>
<feComposite in2="hardAlpha" operator="out"/>
<feColorMatrix type="matrix" values="0 0 0 0 0 0 0 0 0 0 0 0 0 0 0 0 0 0 0.08 0"/>
<feBlend mode="normal" in2="BackgroundImageFix" result="effect1_dropShadow_1_7535"/>
<feBlend mode="normal" in="SourceGraphic" in2="effect1_dropShadow_1_7535" result="shape"/>
</filter>
<filter id="filter7_d_1_7535" x="630.969" y="658" width="70" height="266" filterUnits="userSpaceOnUse" color-interpolation-filters="sRGB">
<feFlood flood-opacity="0" result="BackgroundImageFix"/>
<feColorMatrix in="SourceAlpha" type="matrix" values="0 0 0 0 0 0 0 0 0 0 0 0 0 0 0 0 0 0 127 0" result="hardAlpha"/>
<feOffset dy="1"/>
<feGaussianBlur stdDeviation="1.5"/>
<feComposite in2="hardAlpha" operator="out"/>
<feColorMatrix type="matrix" values="0 0 0 0 0 0 0 0 0 0 0 0 0 0 0 0 0 0 0.08 0"/>
<feBlend mode="normal" in2="BackgroundImageFix" result="effect1_dropShadow_1_7535"/>
<feBlend mode="normal" in="SourceGraphic" in2="effect1_dropShadow_1_7535" result="shape"/>
</filter>
<filter id="filter8_d_1_7535" x="710.969" y="748" width="70" height="176" filterUnits="userSpaceOnUse" color-interpolation-filters="sRGB">
<feFlood flood-opacity="0" result="BackgroundImageFix"/>
<feColorMatrix in="SourceAlpha" type="matrix" values="0 0 0 0 0 0 0 0 0 0 0 0 0 0 0 0 0 0 127 0" result="hardAlpha"/>
<feOffset dy="1"/>
<feGaussianBlur stdDeviation="1.5"/>
<feComposite in2="hardAlpha" operator="out"/>
<feColorMatrix type="matrix" values="0 0 0 0 0 0 0 0 0 0 0 0 0 0 0 0 0 0 0.08 0"/>
<feBlend mode="normal" in2="BackgroundImageFix" result="effect1_dropShadow_1_7535"/>
<feBlend mode="normal" in="SourceGraphic" in2="effect1_dropShadow_1_7535" result="shape"/>
</filter>
<radialGradient id="paint0_radial_1_7535" cx="0" cy="0" r="1" gradientUnits="userSpaceOnUse" gradientTransform="translate(291.166 476) rotate(-90) scale(786.924 704.212)">
<stop stop-color="#265F50" stop-opacity="0.25"/>
<stop offset="0.5" stop-color="#111827" stop-opacity="0"/>
</radialGradient>
<linearGradient id="paint1_linear_1_7535" x1="105.969" y1="920" x2="105.969" y2="740" gradientUnits="userSpaceOnUse">
<stop stop-color="#276152" stop-opacity="0.5"/>
<stop offset="1" stop-color="#1E4D40" stop-opacity="0.25"/>
</linearGradient>
<linearGradient id="paint2_linear_1_7535" x1="0" y1="90" x2="64" y2="90" gradientUnits="userSpaceOnUse">
<stop offset="0.015625" stop-color="white" stop-opacity="0.1"/>
<stop offset="0.015625" stop-opacity="0"/>
</linearGradient>
<linearGradient id="paint3_linear_1_7535" x1="32" y1="0" x2="32" y2="180" gradientUnits="userSpaceOnUse">
<stop offset="0.00555556" stop-color="white" stop-opacity="0.1"/>
<stop offset="0.00555556" stop-opacity="0"/>
</linearGradient>
<linearGradient id="paint4_linear_1_7535" x1="32" y1="180" x2="32" y2="0" gradientUnits="userSpaceOnUse">
<stop stop-color="#276152" stop-opacity="0.3"/>
<stop offset="1" stop-opacity="0"/>
</linearGradient>
<linearGradient id="paint5_linear_1_7535" x1="0" y1="2" x2="64" y2="2" gradientUnits="userSpaceOnUse">
<stop stop-opacity="0"/>
<stop offset="0.0714286" stop-color="#070808" stop-opacity="0.142857"/>
<stop offset="0.142857" stop-color="#222625" stop-opacity="0.285714"/>
<stop offset="0.214286" stop-color="#424947" stop-opacity="0.428571"/>
<stop offset="0.285714" stop-color="#656F6C" stop-opacity="0.571429"/>
<stop offset="0.357143" stop-color="#8A9794" stop-opacity="0.714286"/>
<stop offset="0.428571" stop-color="#B1C1BD" stop-opacity="0.857143"/>
<stop offset="0.5" stop-color="#D9EDE8"/>
<stop offset="0.571429" stop-color="#B1C1BD" stop-opacity="0.857143"/>
<stop offset="0.642857" stop-color="#8A9794" stop-opacity="0.714286"/>
<stop offset="0.714286" stop-color="#656F6C" stop-opacity="0.571429"/>
<stop offset="0.785714" stop-color="#424947" stop-opacity="0.428571"/>
<stop offset="0.857143" stop-color="#222625" stop-opacity="0.285714"/>
<stop offset="0.928571" stop-color="#070808" stop-opacity="0.142857"/>
<stop offset="1" stop-opacity="0"/>
</linearGradient>
<linearGradient id="paint6_linear_1_7535" x1="185.969" y1="920" x2="185.969" y2="680" gradientUnits="userSpaceOnUse">
<stop stop-color="#276152" stop-opacity="0.5"/>
<stop offset="1" stop-color="#1E4D40" stop-opacity="0.25"/>
</linearGradient>
<linearGradient id="paint7_linear_1_7535" x1="0" y1="120" x2="64" y2="120" gradientUnits="userSpaceOnUse">
<stop offset="0.015625" stop-color="white" stop-opacity="0.1"/>
<stop offset="0.015625" stop-opacity="0"/>
</linearGradient>
<linearGradient id="paint8_linear_1_7535" x1="32" y1="0" x2="32" y2="240" gradientUnits="userSpaceOnUse">
<stop offset="0.00416667" stop-color="white" stop-opacity="0.1"/>
<stop offset="0.00416667" stop-opacity="0"/>
</linearGradient>
<linearGradient id="paint9_linear_1_7535" x1="32" y1="240" x2="32" y2="0" gradientUnits="userSpaceOnUse">
<stop stop-color="#276152" stop-opacity="0.3"/>
<stop offset="1" stop-opacity="0"/>
</linearGradient>
<linearGradient id="paint10_linear_1_7535" x1="0" y1="2" x2="64" y2="2" gradientUnits="userSpaceOnUse">
<stop stop-opacity="0"/>
<stop offset="0.0714286" stop-color="#070808" stop-opacity="0.142857"/>
<stop offset="0.142857" stop-color="#222625" stop-opacity="0.285714"/>
<stop offset="0.214286" stop-color="#424947" stop-opacity="0.428571"/>
<stop offset="0.285714" stop-color="#656F6C" stop-opacity="0.571429"/>
<stop offset="0.357143" stop-color="#8A9794" stop-opacity="0.714286"/>
<stop offset="0.428571" stop-color="#B1C1BD" stop-opacity="0.857143"/>
<stop offset="0.5" stop-color="#D9EDE8"/>
<stop offset="0.571429" stop-color="#B1C1BD" stop-opacity="0.857143"/>
<stop offset="0.642857" stop-color="#8A9794" stop-opacity="0.714286"/>
<stop offset="0.714286" stop-color="#656F6C" stop-opacity="0.571429"/>
<stop offset="0.785714" stop-color="#424947" stop-opacity="0.428571"/>
<stop offset="0.857143" stop-color="#222625" stop-opacity="0.285714"/>
<stop offset="0.928571" stop-color="#070808" stop-opacity="0.142857"/>
<stop offset="1" stop-opacity="0"/>
</linearGradient>
<linearGradient id="paint11_linear_1_7535" x1="265.969" y1="920" x2="265.969" y2="760" gradientUnits="userSpaceOnUse">
<stop stop-color="#276152" stop-opacity="0.5"/>
<stop offset="1" stop-color="#1E4D40" stop-opacity="0.25"/>
</linearGradient>
<linearGradient id="paint12_linear_1_7535" x1="0" y1="80" x2="64" y2="80" gradientUnits="userSpaceOnUse">
<stop offset="0.015625" stop-color="white" stop-opacity="0.1"/>
<stop offset="0.015625" stop-opacity="0"/>
</linearGradient>
<linearGradient id="paint13_linear_1_7535" x1="32" y1="0" x2="32" y2="160" gradientUnits="userSpaceOnUse">
<stop offset="0.00625" stop-color="white" stop-opacity="0.1"/>
<stop offset="0.00625" stop-opacity="0"/>
</linearGradient>
<linearGradient id="paint14_linear_1_7535" x1="32" y1="160" x2="32" y2="0" gradientUnits="userSpaceOnUse">
<stop stop-color="#276152" stop-opacity="0.3"/>
<stop offset="1" stop-opacity="0"/>
</linearGradient>
<linearGradient id="paint15_linear_1_7535" x1="0" y1="2" x2="64" y2="2" gradientUnits="userSpaceOnUse">
<stop stop-opacity="0"/>
<stop offset="0.0714286" stop-color="#070808" stop-opacity="0.142857"/>
<stop offset="0.142857" stop-color="#222625" stop-opacity="0.285714"/>
<stop offset="0.214286" stop-color="#424947" stop-opacity="0.428571"/>
<stop offset="0.285714" stop-color="#656F6C" stop-opacity="0.571429"/>
<stop offset="0.357143" stop-color="#8A9794" stop-opacity="0.714286"/>
<stop offset="0.428571" stop-color="#B1C1BD" stop-opacity="0.857143"/>
<stop offset="0.5" stop-color="#D9EDE8"/>
<stop offset="0.571429" stop-color="#B1C1BD" stop-opacity="0.857143"/>
<stop offset="0.642857" stop-color="#8A9794" stop-opacity="0.714286"/>
<stop offset="0.714286" stop-color="#656F6C" stop-opacity="0.571429"/>
<stop offset="0.785714" stop-color="#424947" stop-opacity="0.428571"/>
<stop offset="0.857143" stop-color="#222625" stop-opacity="0.285714"/>
<stop offset="0.928571" stop-color="#070808" stop-opacity="0.142857"/>
<stop offset="1" stop-opacity="0"/>
</linearGradient>
<linearGradient id="paint16_linear_1_7535" x1="345.969" y1="920" x2="345.969" y2="640" gradientUnits="userSpaceOnUse">
<stop stop-color="#276152" stop-opacity="0.5"/>
<stop offset="1" stop-color="#1E4D40" stop-opacity="0.25"/>
</linearGradient>
<linearGradient id="paint17_linear_1_7535" x1="0" y1="140" x2="64" y2="140" gradientUnits="userSpaceOnUse">
<stop offset="0.015625" stop-color="white" stop-opacity="0.1"/>
<stop offset="0.015625" stop-opacity="0"/>
</linearGradient>
<linearGradient id="paint18_linear_1_7535" x1="32" y1="0" x2="32" y2="280" gradientUnits="userSpaceOnUse">
<stop offset="0.00357143" stop-color="white" stop-opacity="0.1"/>
<stop offset="0.00357143" stop-opacity="0"/>
</linearGradient>
<linearGradient id="paint19_linear_1_7535" x1="32" y1="280" x2="32" y2="0" gradientUnits="userSpaceOnUse">
<stop stop-color="#276152" stop-opacity="0.3"/>
<stop offset="1" stop-opacity="0"/>
</linearGradient>
<linearGradient id="paint20_linear_1_7535" x1="0" y1="2" x2="64" y2="2" gradientUnits="userSpaceOnUse">
<stop stop-opacity="0"/>
<stop offset="0.0714286" stop-color="#070808" stop-opacity="0.142857"/>
<stop offset="0.142857" stop-color="#222625" stop-opacity="0.285714"/>
<stop offset="0.214286" stop-color="#424947" stop-opacity="0.428571"/>
<stop offset="0.285714" stop-color="#656F6C" stop-opacity="0.571429"/>
<stop offset="0.357143" stop-color="#8A9794" stop-opacity="0.714286"/>
<stop offset="0.428571" stop-color="#B1C1BD" stop-opacity="0.857143"/>
<stop offset="0.5" stop-color="#D9EDE8"/>
<stop offset="0.571429" stop-color="#B1C1BD" stop-opacity="0.857143"/>
<stop offset="0.642857" stop-color="#8A9794" stop-opacity="0.714286"/>
<stop offset="0.714286" stop-color="#656F6C" stop-opacity="0.571429"/>
<stop offset="0.785714" stop-color="#424947" stop-opacity="0.428571"/>
<stop offset="0.857143" stop-color="#222625" stop-opacity="0.285714"/>
<stop offset="0.928571" stop-color="#070808" stop-opacity="0.142857"/>
<stop offset="1" stop-opacity="0"/>
</linearGradient>
<linearGradient id="paint21_linear_1_7535" x1="425.969" y1="920" x2="425.969" y2="720" gradientUnits="userSpaceOnUse">
<stop stop-color="#276152" stop-opacity="0.5"/>
<stop offset="1" stop-color="#1E4D40" stop-opacity="0.25"/>
</linearGradient>
<linearGradient id="paint22_linear_1_7535" x1="0" y1="100" x2="64" y2="100" gradientUnits="userSpaceOnUse">
<stop offset="0.015625" stop-color="white" stop-opacity="0.1"/>
<stop offset="0.015625" stop-opacity="0"/>
</linearGradient>
<linearGradient id="paint23_linear_1_7535" x1="32" y1="0" x2="32" y2="200" gradientUnits="userSpaceOnUse">
<stop offset="0.005" stop-color="white" stop-opacity="0.1"/>
<stop offset="0.005" stop-opacity="0"/>
</linearGradient>
<linearGradient id="paint24_linear_1_7535" x1="32" y1="200" x2="32" y2="0" gradientUnits="userSpaceOnUse">
<stop stop-color="#276152" stop-opacity="0.3"/>
<stop offset="1" stop-opacity="0"/>
</linearGradient>
<linearGradient id="paint25_linear_1_7535" x1="0" y1="2" x2="64" y2="2" gradientUnits="userSpaceOnUse">
<stop stop-opacity="0"/>
<stop offset="0.0714286" stop-color="#070808" stop-opacity="0.142857"/>
<stop offset="0.142857" stop-color="#222625" stop-opacity="0.285714"/>
<stop offset="0.214286" stop-color="#424947" stop-opacity="0.428571"/>
<stop offset="0.285714" stop-color="#656F6C" stop-opacity="0.571429"/>
<stop offset="0.357143" stop-color="#8A9794" stop-opacity="0.714286"/>
<stop offset="0.428571" stop-color="#B1C1BD" stop-opacity="0.857143"/>
<stop offset="0.5" stop-color="#D9EDE8"/>
<stop offset="0.571429" stop-color="#B1C1BD" stop-opacity="0.857143"/>
<stop offset="0.642857" stop-color="#8A9794" stop-opacity="0.714286"/>
<stop offset="0.714286" stop-color="#656F6C" stop-opacity="0.571429"/>
<stop offset="0.785714" stop-color="#424947" stop-opacity="0.428571"/>
<stop offset="0.857143" stop-color="#222625" stop-opacity="0.285714"/>
<stop offset="0.928571" stop-color="#070808" stop-opacity="0.142857"/>
<stop offset="1" stop-opacity="0"/>
</linearGradient>
<linearGradient id="paint26_linear_1_7535" x1="505.969" y1="920" x2="505.969" y2="700" gradientUnits="userSpaceOnUse">
<stop stop-color="#276152" stop-opacity="0.5"/>
<stop offset="1" stop-color="#1E4D40" stop-opacity="0.25"/>
</linearGradient>
<linearGradient id="paint27_linear_1_7535" x1="0" y1="110" x2="64" y2="110" gradientUnits="userSpaceOnUse">
<stop offset="0.015625" stop-color="white" stop-opacity="0.1"/>
<stop offset="0.015625" stop-opacity="0"/>
</linearGradient>
<linearGradient id="paint28_linear_1_7535" x1="32" y1="0" x2="32" y2="220" gradientUnits="userSpaceOnUse">
<stop offset="0.00454545" stop-color="white" stop-opacity="0.1"/>
<stop offset="0.00454545" stop-opacity="0"/>
</linearGradient>
<linearGradient id="paint29_linear_1_7535" x1="32" y1="220" x2="32" y2="0" gradientUnits="userSpaceOnUse">
<stop stop-color="#276152" stop-opacity="0.3"/>
<stop offset="1" stop-opacity="0"/>
</linearGradient>
<linearGradient id="paint30_linear_1_7535" x1="0" y1="2" x2="64" y2="2" gradientUnits="userSpaceOnUse">
<stop stop-opacity="0"/>
<stop offset="0.0714286" stop-color="#070808" stop-opacity="0.142857"/>
<stop offset="0.142857" stop-color="#222625" stop-opacity="0.285714"/>
<stop offset="0.214286" stop-color="#424947" stop-opacity="0.428571"/>
<stop offset="0.285714" stop-color="#656F6C" stop-opacity="0.571429"/>
<stop offset="0.357143" stop-color="#8A9794" stop-opacity="0.714286"/>
<stop offset="0.428571" stop-color="#B1C1BD" stop-opacity="0.857143"/>
<stop offset="0.5" stop-color="#D9EDE8"/>
<stop offset="0.571429" stop-color="#B1C1BD" stop-opacity="0.857143"/>
<stop offset="0.642857" stop-color="#8A9794" stop-opacity="0.714286"/>
<stop offset="0.714286" stop-color="#656F6C" stop-opacity="0.571429"/>
<stop offset="0.785714" stop-color="#424947" stop-opacity="0.428571"/>
<stop offset="0.857143" stop-color="#222625" stop-opacity="0.285714"/>
<stop offset="0.928571" stop-color="#070808" stop-opacity="0.142857"/>
<stop offset="1" stop-opacity="0"/>
</linearGradient>
<linearGradient id="paint31_linear_1_7535" x1="585.969" y1="920" x2="585.969" y2="730" gradientUnits="userSpaceOnUse">
<stop stop-color="#276152" stop-opacity="0.5"/>
<stop offset="1" stop-color="#1E4D40" stop-opacity="0.25"/>
</linearGradient>
<linearGradient id="paint32_linear_1_7535" x1="0" y1="95" x2="64" y2="95" gradientUnits="userSpaceOnUse">
<stop offset="0.015625" stop-color="white" stop-opacity="0.1"/>
<stop offset="0.015625" stop-opacity="0"/>
</linearGradient>
<linearGradient id="paint33_linear_1_7535" x1="32" y1="0" x2="32" y2="190" gradientUnits="userSpaceOnUse">
<stop offset="0.00526316" stop-color="white" stop-opacity="0.1"/>
<stop offset="0.00526316" stop-opacity="0"/>
</linearGradient>
<linearGradient id="paint34_linear_1_7535" x1="32" y1="190" x2="32" y2="0" gradientUnits="userSpaceOnUse">
<stop stop-color="#276152" stop-opacity="0.3"/>
<stop offset="1" stop-opacity="0"/>
</linearGradient>
<linearGradient id="paint35_linear_1_7535" x1="0" y1="2" x2="64" y2="2" gradientUnits="userSpaceOnUse">
<stop stop-opacity="0"/>
<stop offset="0.0714286" stop-color="#070808" stop-opacity="0.142857"/>
<stop offset="0.142857" stop-color="#222625" stop-opacity="0.285714"/>
<stop offset="0.214286" stop-color="#424947" stop-opacity="0.428571"/>
<stop offset="0.285714" stop-color="#656F6C" stop-opacity="0.571429"/>
<stop offset="0.357143" stop-color="#8A9794" stop-opacity="0.714286"/>
<stop offset="0.428571" stop-color="#B1C1BD" stop-opacity="0.857143"/>
<stop offset="0.5" stop-color="#D9EDE8"/>
<stop offset="0.571429" stop-color="#B1C1BD" stop-opacity="0.857143"/>
<stop offset="0.642857" stop-color="#8A9794" stop-opacity="0.714286"/>
<stop offset="0.714286" stop-color="#656F6C" stop-opacity="0.571429"/>
<stop offset="0.785714" stop-color="#424947" stop-opacity="0.428571"/>
<stop offset="0.857143" stop-color="#222625" stop-opacity="0.285714"/>
<stop offset="0.928571" stop-color="#070808" stop-opacity="0.142857"/>
<stop offset="1" stop-opacity="0"/>
</linearGradient>
<linearGradient id="paint36_linear_1_7535" x1="665.969" y1="920" x2="665.969" y2="660" gradientUnits="userSpaceOnUse">
<stop stop-color="#276152" stop-opacity="0.5"/>
<stop offset="1" stop-color="#1E4D40" stop-opacity="0.25"/>
</linearGradient>
<linearGradient id="paint37_linear_1_7535" x1="0" y1="130" x2="64" y2="130" gradientUnits="userSpaceOnUse">
<stop offset="0.015625" stop-color="white" stop-opacity="0.1"/>
<stop offset="0.015625" stop-opacity="0"/>
</linearGradient>
<linearGradient id="paint38_linear_1_7535" x1="32" y1="0" x2="32" y2="260" gradientUnits="userSpaceOnUse">
<stop offset="0.00384615" stop-color="white" stop-opacity="0.1"/>
<stop offset="0.00384615" stop-opacity="0"/>
</linearGradient>
<linearGradient id="paint39_linear_1_7535" x1="32" y1="260" x2="32" y2="0" gradientUnits="userSpaceOnUse">
<stop stop-color="#276152" stop-opacity="0.3"/>
<stop offset="1" stop-opacity="0"/>
</linearGradient>
<linearGradient id="paint40_linear_1_7535" x1="0" y1="2" x2="64" y2="2" gradientUnits="userSpaceOnUse">
<stop stop-opacity="0"/>
<stop offset="0.0714286" stop-color="#070808" stop-opacity="0.142857"/>
<stop offset="0.142857" stop-color="#222625" stop-opacity="0.285714"/>
<stop offset="0.214286" stop-color="#424947" stop-opacity="0.428571"/>
<stop offset="0.285714" stop-color="#656F6C" stop-opacity="0.571429"/>
<stop offset="0.357143" stop-color="#8A9794" stop-opacity="0.714286"/>
<stop offset="0.428571" stop-color="#B1C1BD" stop-opacity="0.857143"/>
<stop offset="0.5" stop-color="#D9EDE8"/>
<stop offset="0.571429" stop-color="#B1C1BD" stop-opacity="0.857143"/>
<stop offset="0.642857" stop-color="#8A9794" stop-opacity="0.714286"/>
<stop offset="0.714286" stop-color="#656F6C" stop-opacity="0.571429"/>
<stop offset="0.785714" stop-color="#424947" stop-opacity="0.428571"/>
<stop offset="0.857143" stop-color="#222625" stop-opacity="0.285714"/>
<stop offset="0.928571" stop-color="#070808" stop-opacity="0.142857"/>
<stop offset="1" stop-opacity="0"/>
</linearGradient>
<linearGradient id="paint41_linear_1_7535" x1="745.969" y1="920" x2="745.969" y2="750" gradientUnits="userSpaceOnUse">
<stop stop-color="#276152" stop-opacity="0.5"/>
<stop offset="1" stop-color="#1E4D40" stop-opacity="0.25"/>
</linearGradient>
<linearGradient id="paint42_linear_1_7535" x1="0" y1="85" x2="64" y2="85" gradientUnits="userSpaceOnUse">
<stop offset="0.015625" stop-color="white" stop-opacity="0.1"/>
<stop offset="0.015625" stop-opacity="0"/>
</linearGradient>
<linearGradient id="paint43_linear_1_7535" x1="32" y1="0" x2="32" y2="170" gradientUnits="userSpaceOnUse">
<stop offset="0.00588235" stop-color="white" stop-opacity="0.1"/>
<stop offset="0.00588235" stop-opacity="0"/>
</linearGradient>
<linearGradient id="paint44_linear_1_7535" x1="32" y1="170" x2="32" y2="0" gradientUnits="userSpaceOnUse">
<stop stop-color="#276152" stop-opacity="0.3"/>
<stop offset="1" stop-opacity="0"/>
</linearGradient>
<linearGradient id="paint45_linear_1_7535" x1="0" y1="2" x2="64" y2="2" gradientUnits="userSpaceOnUse">
<stop stop-opacity="0"/>
<stop offset="0.0714286" stop-color="#070808" stop-opacity="0.142857"/>
<stop offset="0.142857" stop-color="#222625" stop-opacity="0.285714"/>
<stop offset="0.214286" stop-color="#424947" stop-opacity="0.428571"/>
<stop offset="0.285714" stop-color="#656F6C" stop-opacity="0.571429"/>
<stop offset="0.357143" stop-color="#8A9794" stop-opacity="0.714286"/>
<stop offset="0.428571" stop-color="#B1C1BD" stop-opacity="0.857143"/>
<stop offset="0.5" stop-color="#D9EDE8"/>
<stop offset="0.571429" stop-color="#B1C1BD" stop-opacity="0.857143"/>
<stop offset="0.642857" stop-color="#8A9794" stop-opacity="0.714286"/>
<stop offset="0.714286" stop-color="#656F6C" stop-opacity="0.571429"/>
<stop offset="0.785714" stop-color="#424947" stop-opacity="0.428571"/>
<stop offset="0.857143" stop-color="#222625" stop-opacity="0.285714"/>
<stop offset="0.928571" stop-color="#070808" stop-opacity="0.142857"/>
<stop offset="1" stop-opacity="0"/>
</linearGradient>
<linearGradient id="paint46_linear_1_7535" x1="425.969" y1="952" x2="425.969" y2="0" gradientUnits="userSpaceOnUse">
<stop stop-color="#111827"/>
<stop offset="0.0714286" stop-color="#0C111E" stop-opacity="0.857143"/>
<stop offset="0.142857" stop-color="#070B15" stop-opacity="0.714286"/>
<stop offset="0.214286" stop-color="#03060C" stop-opacity="0.571429"/>
<stop offset="0.285714" stop-color="#010205" stop-opacity="0.428571"/>
<stop offset="0.357143" stop-color="#000102" stop-opacity="0.285714"/>
<stop offset="0.428571" stop-opacity="0.142857"/>
<stop offset="0.5" stop-opacity="0"/>
<stop offset="1" stop-opacity="0"/>
</linearGradient>
<linearGradient id="paint47_linear_1_7535" x1="0" y1="476" x2="851.938" y2="476" gradientUnits="userSpaceOnUse">
<stop stop-color="#111827" stop-opacity="0.5"/>
<stop offset="0.5" stop-opacity="0"/>
<stop offset="1" stop-opacity="0"/>
</linearGradient>
<linearGradient id="paint48_linear_1_7535" x1="0" y1="476" x2="851.938" y2="476" gradientUnits="userSpaceOnUse">
<stop offset="0.00117379" stop-color="#276152" stop-opacity="0.4"/>
<stop offset="0.00117379" stop-opacity="0"/>
</linearGradient>
<linearGradient id="paint49_linear_1_7535" x1="425.969" y1="0" x2="425.969" y2="952" gradientUnits="userSpaceOnUse">
<stop offset="0.00105042" stop-color="#276152" stop-opacity="0.4"/>
<stop offset="0.00105042" stop-opacity="0"/>
</linearGradient>
<clipPath id="clip0_1_7535">
<rect width="851.938" height="952" fill="white"/>
</clipPath>
<clipPath id="clip1_1_7535">
<rect width="851.938" height="952" fill="white"/>
</clipPath>
<clipPath id="clip2_1_7535">
<path d="M73.9688 752C73.9688 745.373 79.3413 740 85.9688 740H125.969C132.596 740 137.969 745.373 137.969 752V920H73.9688V752Z" fill="white"/>
</clipPath>
<clipPath id="clip3_1_7535">
<path d="M153.969 692C153.969 685.373 159.341 680 165.969 680H205.969C212.596 680 217.969 685.373 217.969 692V920H153.969V692Z" fill="white"/>
</clipPath>
<clipPath id="clip4_1_7535">
<path d="M233.969 772C233.969 765.373 239.341 760 245.969 760H285.969C292.596 760 297.969 765.373 297.969 772V920H233.969V772Z" fill="white"/>
</clipPath>
<clipPath id="clip5_1_7535">
<path d="M313.969 652C313.969 645.373 319.341 640 325.969 640H365.969C372.596 640 377.969 645.373 377.969 652V920H313.969V652Z" fill="white"/>
</clipPath>
<clipPath id="clip6_1_7535">
<path d="M393.969 732C393.969 725.373 399.341 720 405.969 720H445.969C452.596 720 457.969 725.373 457.969 732V920H393.969V732Z" fill="white"/>
</clipPath>
<clipPath id="clip7_1_7535">
<path d="M473.969 712C473.969 705.373 479.341 700 485.969 700H525.969C532.596 700 537.969 705.373 537.969 712V920H473.969V712Z" fill="white"/>
</clipPath>
<clipPath id="clip8_1_7535">
<path d="M553.969 742C553.969 735.373 559.341 730 565.969 730H605.969C612.596 730 617.969 735.373 617.969 742V920H553.969V742Z" fill="white"/>
</clipPath>
<clipPath id="clip9_1_7535">
<path d="M633.969 672C633.969 665.373 639.341 660 645.969 660H685.969C692.596 660 697.969 665.373 697.969 672V920H633.969V672Z" fill="white"/>
</clipPath>
<clipPath id="clip10_1_7535">
<path d="M713.969 762C713.969 755.373 719.341 750 725.969 750H765.969C772.596 750 777.969 755.373 777.969 762V920H713.969V762Z" fill="white"/>
</clipPath>
</defs>
</svg>
