<svg width="188" height="40" viewBox="0 0 188 40" fill="none" xmlns="http://www.w3.org/2000/svg">
<path d="M66.42 30L65.244 26.472H57.432L56.256 30H52.084L58.944 10.4H63.732L70.62 30H66.42ZM58.664 22.86H64.04L61.352 14.852L58.664 22.86ZM92.1122 20.2C92.1122 22.748 91.2162 25.044 89.7042 26.808L91.7202 28.908L88.9762 31.344L86.8482 29.132C85.3922 29.944 83.7122 30.392 81.9202 30.392C76.2922 30.392 71.7562 25.912 71.7562 20.2C71.7562 14.46 76.2922 10.008 81.9202 10.008C87.5482 10.008 92.1122 14.46 92.1122 20.2ZM81.9202 26.612C82.6762 26.612 83.4322 26.472 84.1042 26.248L80.8842 22.888L83.6282 20.452L87.0722 24.036C87.8002 23 88.2482 21.684 88.2482 20.2C88.2482 16.42 85.4482 13.76 81.9202 13.76C78.3922 13.76 75.5922 16.42 75.5922 20.2C75.5922 23.952 78.3922 26.612 81.9202 26.612ZM107.509 26.304H115.769V30H103.645V10.4H115.629V14.096H107.509V18.268H114.929V21.908H107.509V26.304ZM122.496 19.976C122.496 22.048 129.72 20.76 129.72 25.912C129.72 28.936 127.088 30.392 124.092 30.392C121.292 30.392 119.22 29.216 118.212 27.06L121.348 25.296C121.74 26.444 122.692 27.116 124.092 27.116C125.24 27.116 126.024 26.724 126.024 25.912C126.024 23.868 118.8 24.988 118.8 20.06C118.8 17.204 121.236 15.608 124.12 15.608C126.388 15.608 128.348 16.644 129.44 18.576L126.36 20.256C125.94 19.36 125.156 18.828 124.12 18.828C123.224 18.828 122.496 19.22 122.496 19.976ZM140.481 19.472H137.317V25.296C137.317 26.808 138.409 26.836 140.481 26.724V30C135.413 30.56 133.705 29.076 133.705 25.296V19.472H131.269V16H133.705V13.172L137.317 12.08V16H140.481V19.472ZM154.07 16H157.682V30H154.07V28.348C153.062 29.608 151.55 30.392 149.506 30.392C145.782 30.392 142.702 27.172 142.702 23C142.702 18.828 145.782 15.608 149.506 15.608C151.55 15.608 153.062 16.392 154.07 17.652V16ZM150.178 26.948C152.418 26.948 154.07 25.352 154.07 23C154.07 20.648 152.418 19.052 150.178 19.052C147.966 19.052 146.314 20.648 146.314 23C146.314 25.352 147.966 26.948 150.178 26.948ZM169.806 19.472H166.642V25.296C166.642 26.808 167.734 26.836 169.806 26.724V30C164.738 30.56 163.03 29.076 163.03 25.296V19.472H160.594V16H163.03V13.172L166.642 12.08V16H169.806V19.472ZM175.807 24.484C176.311 26.332 177.851 27.116 179.755 27.116C181.155 27.116 182.275 26.528 182.891 25.716L185.803 27.396C184.487 29.3 182.387 30.392 179.699 30.392C174.995 30.392 172.027 27.172 172.027 23C172.027 18.828 175.023 15.608 179.419 15.608C183.563 15.608 186.503 18.884 186.503 23C186.503 23.532 186.447 24.008 186.363 24.484H175.807ZM175.751 21.684H182.891C182.443 19.668 180.931 18.856 179.419 18.856C177.487 18.856 176.171 19.892 175.751 21.684Z" fill="white"/>
<path d="M26.75 36.65C24.4 37.725 21.8 38.35 19.05 38.35C15.1 38.35 11.45 37.1 8.47499 35C6.57499 33.65 4.92499 31.95 3.64999 30L7.72499 22.925C8.37499 25.45 9.82499 27.625 11.825 29.2C13.825 30.775 16.325 31.7 19.05 31.7C21.775 31.7 22.05 31.4 23.375 30.875L26.725 36.7L26.75 36.65Z" fill="#D7C2A3"/>
<path d="M37.4 19.975C37.4 22.225 37 24.4 36.25 26.4L29.325 14.4L29.275 14.325C29.2 14.175 29.125 14.05 29.05 13.925C27.75 11.75 25.775 10.075 23.425 9.15C23.025 9 22.625 8.85 22.225 8.75C21.225 8.475 20.175 8.325 19.1 8.325C18.025 8.325 16.95 8.475 15.975 8.75C15.575 8.875 15.175 9 14.775 9.15C13.725 9.575 12.75 10.125 11.875 10.825C10.775 11.675 9.85001 12.75 9.12501 13.95L8.97501 14.225L1.87501 26.4C1.12501 24.4 0.725006 22.225 0.725006 19.975C0.725006 13.775 3.80001 8.3 8.50001 4.975C9.40001 4.325 10.375 3.775 11.375 3.3C12.825 2.625 14.4 2.125 16.05 1.85C16.725 1.725 17.425 1.65 18.125 1.625C18.45 1.625 18.75 1.625 19.075 1.625C19.4 1.625 19.7 1.625 20.025 1.625C20.725 1.65 21.425 1.75 22.1 1.85C23.75 2.125 25.3 2.6 26.775 3.3C33.075 6.2 37.425 12.575 37.425 19.95L37.4 19.975Z" fill="#D7C2A3"/>
<path d="M39.275 38.325H31.575L29.625 34.975L26.275 29.15L24.575 26.225L22.85 23.225L20.525 19.2L20.45 19.075V19.025C20.125 18.575 19.6 18.3 19.025 18.3C18.45 18.3 17.85 18.65 17.55 19.175L17.1 19.975L15.225 23.225L13.5 26.225L11.8 29.15C9.825 27.6 8.35 25.4 7.7 22.875L11.675 16L11.875 15.65C12.3 14.925 12.85 14.275 13.475 13.725C14.3 12.975 15.275 12.4 16.375 12.05C17.2 11.775 18.1 11.625 19.025 11.625C19.95 11.625 20.825 11.775 21.675 12.05C23.55 12.675 25.15 13.95 26.15 15.625L26.35 16L30.325 22.9L34.4 29.975L39.225 38.35L39.275 38.325Z" fill="#276152"/>
</svg>
